<svg width="553" height="553" viewBox="0 0 553 553" fill="none" xmlns="http://www.w3.org/2000/svg">
<path d="M497.589 440.73H460.959V441.006H497.589V440.73Z" fill="#EBEBEB"/>
<path d="M366.329 443.738H356.718V444.015H366.329V443.738Z" fill="#EBEBEB"/>
<path d="M459.853 430.466H438.629V430.743H459.853V430.466Z" fill="#EBEBEB"/>
<path d="M105.789 432.324H58.0208V432.601H105.789V432.324Z" fill="#EBEBEB"/>
<path d="M122.644 432.324H115.643V432.601H122.644V432.324Z" fill="#EBEBEB"/>
<path d="M249.016 436.992H145.406V437.268H249.016V436.992Z" fill="#EBEBEB"/>
<path d="M262.122 373.607H48.5755C46.9006 373.607 45.2943 372.941 44.11 371.757C42.9256 370.573 42.2603 368.966 42.2603 367.292V67.09C42.2748 65.4247 42.9466 63.8325 44.1294 62.6601C45.3122 61.4877 46.9101 60.83 48.5755 60.83H262.122C263.797 60.83 265.403 61.4954 266.588 62.6797C267.772 63.8641 268.437 65.4704 268.437 67.1453V367.292C268.437 368.966 267.772 370.573 266.588 371.757C265.403 372.941 263.797 373.607 262.122 373.607ZM48.5755 61.0512C46.9748 61.0541 45.4406 61.6913 44.3087 62.8232C43.1768 63.955 42.5397 65.4893 42.5368 67.09V367.292C42.5397 368.892 43.1768 370.427 44.3087 371.558C45.4406 372.69 46.9748 373.327 48.5755 373.33H262.122C263.723 373.327 265.257 372.69 266.389 371.558C267.521 370.427 268.158 368.892 268.161 367.292V67.09C268.158 65.4893 267.521 63.955 266.389 62.8232C265.257 61.6913 263.723 61.0541 262.122 61.0512H48.5755Z" fill="#EBEBEB"/>
<path d="M501.361 373.607H287.792C286.118 373.604 284.514 372.938 283.33 371.754C282.146 370.57 281.48 368.966 281.477 367.292V67.09C281.494 65.4256 282.167 63.8351 283.349 62.6633C284.531 61.4915 286.128 60.8328 287.792 60.83H501.361C503.022 60.8358 504.615 61.4961 505.793 62.6679C506.971 63.8397 507.639 65.4285 507.654 67.09V367.292C507.654 368.963 506.992 370.566 505.812 371.749C504.633 372.933 503.032 373.601 501.361 373.607ZM287.792 61.0512C286.192 61.0541 284.657 61.6913 283.525 62.8232C282.394 63.955 281.756 65.4893 281.753 67.09V367.292C281.756 368.892 282.394 370.427 283.525 371.558C284.657 372.69 286.192 373.327 287.792 373.33H501.361C502.962 373.327 504.496 372.69 505.628 371.558C506.76 370.427 507.397 368.892 507.4 367.292V67.09C507.397 65.4893 506.76 63.955 505.628 62.8232C504.496 61.6913 502.962 61.0541 501.361 61.0512H287.792Z" fill="#EBEBEB"/>
<path d="M553 422.934H0V423.211H553V422.934Z" fill="#EBEBEB"/>
<path d="M460.925 104.705H322.908V251.681H460.925V104.705Z" fill="#EBEBEB"/>
<path d="M452.631 113H331.203V243.386H452.631V113Z" fill="#F5F5F5"/>
<path d="M378.86 243.386H415.358L449.622 113H413.124L378.86 243.386Z" fill="#FAFAFA"/>
<path d="M396.169 113L361.905 243.386H370.753L405.017 113H396.169Z" fill="#FAFAFA"/>
<path d="M462.662 111.618H321.16L318.174 104.65H465.648L462.662 111.618Z" fill="#F5F5F5"/>
<path d="M462.662 115.654H321.16L318.174 108.687H465.648L462.662 115.654Z" fill="#F0F0F0"/>
<path d="M462.662 119.691H321.16L318.174 112.724H465.648L462.662 119.691Z" fill="#E6E6E6"/>
<path d="M462.662 123.728H321.16L318.174 116.76H465.648L462.662 123.728Z" fill="#E0E0E0"/>
<path d="M470.802 95.9234H313.031V105.214H470.802V95.9234Z" fill="#E0E0E0"/>
<path d="M314.646 189.447C314.221 189.447 313.813 189.278 313.512 188.977C313.211 188.676 313.042 188.268 313.042 187.843V133.649C313.042 133.224 313.211 132.816 313.512 132.515C313.813 132.214 314.221 132.045 314.646 132.045C315.071 132.045 315.479 132.214 315.78 132.515C316.081 132.816 316.25 133.224 316.25 133.649V187.843C316.25 188.268 316.081 188.676 315.78 188.977C315.479 189.278 315.071 189.447 314.646 189.447Z" fill="#E0E0E0"/>
<path d="M315.221 103.356H314.06V135.54H315.221V103.356Z" fill="#E0E0E0"/>
<path d="M100.115 101.863H98.1243V257.112H100.115V101.863Z" fill="#E0E0E0"/>
<path d="M224.042 101.863H222.052V257.112H224.042V101.863Z" fill="#E0E0E0"/>
<path d="M231.851 111.618H90.327L87.3408 104.65H234.826L231.851 111.618Z" fill="#F5F5F5"/>
<path d="M231.851 121.184H90.327L87.3408 114.217H234.826L231.851 121.184Z" fill="#F5F5F5"/>
<path d="M231.851 130.751H90.327L87.3408 123.784H234.826L231.851 130.751Z" fill="#F5F5F5"/>
<path d="M231.851 140.318H90.327L87.3408 133.35H234.826L231.851 140.318Z" fill="#F5F5F5"/>
<path d="M231.851 149.885H90.327L87.3408 142.917H234.826L231.851 149.885Z" fill="#F5F5F5"/>
<path d="M231.851 159.452H90.327L87.3408 152.484H234.826L231.851 159.452Z" fill="#F5F5F5"/>
<path d="M231.851 169.019H90.327L87.3408 162.051H234.826L231.851 169.019Z" fill="#F5F5F5"/>
<path d="M231.851 178.586H90.327L87.3408 171.618H234.826L231.851 178.586Z" fill="#F5F5F5"/>
<path d="M231.851 188.153H90.327L87.3408 181.185H234.826L231.851 188.153Z" fill="#F5F5F5"/>
<path d="M231.851 197.72H90.327L87.3408 190.752H234.826L231.851 197.72Z" fill="#F5F5F5"/>
<path d="M231.851 207.287H90.327L87.3408 200.319H234.826L231.851 207.287Z" fill="#F5F5F5"/>
<path d="M231.851 216.842H90.327L87.3408 209.875H234.826L231.851 216.842Z" fill="#F5F5F5"/>
<path d="M231.851 226.42H90.327L87.3408 219.441H234.826L231.851 226.42Z" fill="#F5F5F5"/>
<path d="M231.851 235.976H90.327L87.3408 229.008H234.826L231.851 235.976Z" fill="#F5F5F5"/>
<path d="M231.851 245.543H90.327L87.3408 238.575H234.826L231.851 245.543Z" fill="#F5F5F5"/>
<path d="M231.851 255.11H90.327L87.3408 248.142H234.826L231.851 255.11Z" fill="#F5F5F5"/>
<path d="M234.826 255.11H87.3408V259.092H234.826V255.11Z" fill="#E0E0E0"/>
<path d="M239.969 95.9234H82.1979V105.214H239.969V95.9234Z" fill="#E0E0E0"/>
<path d="M83.8237 189.447C83.3984 189.447 82.9905 189.278 82.6897 188.977C82.389 188.676 82.22 188.268 82.22 187.843V133.649C82.22 133.224 82.389 132.816 82.6897 132.515C82.9905 132.214 83.3984 132.045 83.8237 132.045C84.2491 132.045 84.657 132.214 84.9577 132.515C85.2585 132.816 85.4274 133.224 85.4274 133.649V187.843C85.4274 188.268 85.2585 188.676 84.9577 188.977C84.657 189.278 84.2491 189.447 83.8237 189.447Z" fill="#E0E0E0"/>
<path d="M84.3988 103.356H83.2375V135.54H84.3988V103.356Z" fill="#E0E0E0"/>
<path d="M98.7879 356.552C98.6552 356.696 99.3962 357.736 96.3658 357.282C88.9003 356.176 75.9048 353.135 72.2882 345.459C67.1231 334.499 83.138 338.502 82.585 332.895C82.032 327.288 63.783 328.261 61.8696 320.043C59.9563 311.826 72.2992 315.741 72.4651 311.737C72.631 307.733 58.3857 310.211 55.5544 301.341C52.723 292.471 63.4955 299.007 62.2568 295.313C61.018 291.619 48.9848 274.952 55.5212 273.016C62.0577 271.081 73.1287 288.19 77.42 290.613C81.7113 293.035 85.4717 279.066 90.5593 284.972C95.6469 290.878 87.5731 311.516 94.0542 315.509C98.8875 318.495 97.5271 310.277 103.898 311.815C112.513 313.894 109.605 344.453 98.7879 356.552Z" fill="#EBEBEB"/>
<path d="M75.7499 311.781C77.9465 311.944 80.1134 312.386 82.1979 313.098C80.8158 311.022 79.2817 309.051 77.608 307.203C77.5181 307.096 77.4717 306.96 77.4781 306.821C77.4844 306.681 77.543 306.55 77.6422 306.452C77.7414 306.354 77.8739 306.297 78.0131 306.293C78.1524 306.289 78.2881 306.337 78.3933 306.428C82.0008 310.474 85.0884 314.955 87.5842 319.767C89.9399 305.621 84.0118 293.223 83.9454 293.134C83.9101 293.037 83.9121 292.929 83.9512 292.833C83.9903 292.737 84.0637 292.659 84.1571 292.613C84.2506 292.568 84.3575 292.559 84.4573 292.587C84.5571 292.616 84.6426 292.681 84.6975 292.769C84.7639 292.902 91.0791 306.097 88.2146 320.939C88.9777 322.388 89.7519 323.947 90.504 325.617C93.1801 331.572 95.2944 337.763 96.8193 344.11C99.5815 338.899 101.096 333.117 101.243 327.221C101.245 327.167 101.257 327.115 101.279 327.065C101.3 327.016 101.332 326.972 101.371 326.935C101.41 326.898 101.456 326.869 101.506 326.85C101.556 326.831 101.61 326.822 101.664 326.823C101.719 326.824 101.773 326.837 101.824 326.859C101.874 326.882 101.92 326.914 101.958 326.954C101.996 326.994 102.025 327.041 102.045 327.093C102.065 327.144 102.074 327.199 102.073 327.254C101.94 333.576 100.241 339.767 97.1289 345.271C99.9511 357.762 100.894 370.604 99.9271 383.373C99.9229 383.445 99.9043 383.517 99.8726 383.582C99.8408 383.648 99.7964 383.706 99.7419 383.754C99.6875 383.803 99.624 383.84 99.5552 383.864C99.4864 383.887 99.4136 383.897 99.3409 383.893H99.2746C99.1407 383.868 99.0209 383.795 98.9389 383.686C98.857 383.577 98.8189 383.442 98.8322 383.306C100.193 363.398 97.2285 347.461 93.1142 335.361C90.831 332.717 87.7063 330.939 84.2662 330.329C84.1596 330.308 84.0651 330.247 84.0015 330.158C83.9379 330.07 83.91 329.961 83.9233 329.853C83.9301 329.8 83.9475 329.747 83.9747 329.7C84.0018 329.653 84.038 329.612 84.0813 329.579C84.1245 329.546 84.1739 329.522 84.2266 329.508C84.2792 329.495 84.334 329.492 84.3878 329.5C87.4048 330.02 90.2036 331.412 92.4395 333.503C90.0494 326.772 86.8872 320.34 83.0164 314.336C80.6837 313.362 78.2061 312.779 75.6836 312.611C75.574 312.602 75.4722 312.551 75.3998 312.469C75.3275 312.386 75.2904 312.278 75.2965 312.169C75.2992 312.113 75.3132 312.058 75.3379 312.008C75.3625 311.958 75.3971 311.913 75.4395 311.877C75.482 311.841 75.5315 311.814 75.5849 311.797C75.6382 311.781 75.6944 311.775 75.7499 311.781Z" fill="#F5F5F5"/>
<path d="M108.388 360.788C114.593 360.899 125.188 355.137 129.402 349.54C133.616 343.944 121.749 347.328 122.965 342.904C124.182 338.48 138.825 341.743 141.524 335.339C144.222 328.936 133.671 330.418 134.091 327.144C134.512 323.87 145.45 324.545 148.956 317.743C152.462 310.941 142.851 314.757 144.355 311.936C145.859 309.116 157.926 297.26 152.882 294.793C147.839 292.327 136.525 304.67 132.742 306.052C128.96 307.435 128.064 298.897 123.131 302.978C118.198 307.059 121.892 324.888 116.097 327.243C111.772 329.002 113.608 320.829 108.631 322.897C99.8276 326.513 105.833 360.733 108.388 360.788Z" fill="#E0E0E0"/>
<g opacity="0.3">
<path d="M108.388 360.788C114.593 360.899 125.188 355.137 129.402 349.54C133.616 343.944 121.749 347.328 122.965 342.904C124.182 338.48 138.825 341.743 141.524 335.339C144.222 328.936 133.671 330.418 134.091 327.144C134.512 323.87 145.45 324.545 148.956 317.743C152.462 310.941 142.851 314.757 144.355 311.936C145.859 309.116 157.926 297.26 152.882 294.793C147.839 292.327 136.525 304.67 132.742 306.052C128.96 307.435 128.064 298.897 123.131 302.978C118.198 307.059 121.892 324.888 116.097 327.243C111.772 329.002 113.608 320.829 108.631 322.897C99.8276 326.513 105.833 360.733 108.388 360.788Z" fill="#E0E0E0"/>
</g>
<path d="M110.401 353.345C110.307 353.31 110.229 353.244 110.18 353.157C107.815 347.966 106.854 342.245 107.393 336.567C107.389 336.507 107.398 336.447 107.42 336.39C107.441 336.334 107.475 336.283 107.518 336.241C107.561 336.199 107.612 336.166 107.669 336.146C107.725 336.125 107.786 336.117 107.846 336.122C107.906 336.127 107.964 336.144 108.016 336.174C108.069 336.203 108.115 336.243 108.15 336.292C108.186 336.34 108.211 336.396 108.223 336.455C108.236 336.514 108.235 336.574 108.222 336.633C107.759 342.024 108.621 347.446 110.733 352.427C113.297 345.508 116.458 338.825 120.178 332.453C119.072 319.181 125.907 308.231 125.973 308.121C126.032 308.028 126.125 307.963 126.232 307.939C126.339 307.915 126.451 307.935 126.543 307.993C126.635 308.052 126.701 308.145 126.725 308.252C126.748 308.359 126.729 308.471 126.67 308.563C122.717 315.428 120.731 323.25 120.93 331.17C125.389 323.52 130.711 316.406 136.79 309.968C136.84 309.91 136.901 309.864 136.97 309.831C137.039 309.798 137.114 309.78 137.19 309.778C137.266 309.775 137.342 309.789 137.413 309.817C137.484 309.845 137.548 309.888 137.601 309.942C137.655 309.996 137.696 310.061 137.724 310.132C137.751 310.203 137.763 310.279 137.76 310.356C137.756 310.432 137.737 310.506 137.704 310.575C137.67 310.643 137.622 310.704 137.564 310.753C133.073 315.479 129.019 320.602 125.454 326.06C129.19 324.653 133.152 323.941 137.144 323.958C137.254 323.964 137.356 324.013 137.431 324.093C137.505 324.174 137.545 324.28 137.542 324.39C137.539 324.496 137.495 324.598 137.418 324.672C137.342 324.746 137.24 324.788 137.133 324.788C132.841 324.752 128.587 325.583 124.624 327.232C122.181 330.983 119.929 334.856 117.877 338.834C119.544 337.678 121.441 336.897 123.438 336.546C125.436 336.195 127.486 336.281 129.446 336.799C129.553 336.828 129.644 336.897 129.7 336.992C129.756 337.088 129.772 337.201 129.745 337.308C129.731 337.36 129.706 337.41 129.673 337.453C129.64 337.496 129.598 337.532 129.551 337.559C129.503 337.585 129.451 337.602 129.397 337.609C129.343 337.615 129.288 337.611 129.236 337.595C127.11 337.048 124.883 337.033 122.75 337.55C120.617 338.067 118.643 339.1 117.004 340.56C109.873 354.696 105.806 370.178 105.07 385.994C105.064 386.137 105.003 386.272 104.9 386.371C104.797 386.47 104.66 386.525 104.517 386.525C104.374 386.525 104.237 386.47 104.134 386.371C104.03 386.272 103.97 386.137 103.964 385.994C104.428 374.846 106.599 363.835 110.401 353.345Z" fill="#F5F5F5"/>
<path d="M90.9021 421.386C84.985 410.26 81.0919 394.178 81.0919 387.1C81.1206 384.214 81.7833 381.37 83.0333 378.769C84.2833 376.167 86.0899 373.873 88.3252 372.047H118.641C120.876 373.873 122.682 376.167 123.932 378.769C125.182 381.37 125.845 384.214 125.874 387.1C125.874 394.156 121.981 410.238 116.064 421.386H90.9021Z" fill="#F0F0F0"/>
<path d="M271.169 468.623C389.602 468.623 485.611 463.018 485.611 456.103C485.611 449.189 389.602 443.583 271.169 443.583C152.736 443.583 56.7267 449.189 56.7267 456.103C56.7267 463.018 152.736 468.623 271.169 468.623Z" fill="#F5F5F5"/>
<path d="M323.671 132.322H297.127C296.262 132.34 295.429 132.648 294.759 133.195C294.09 133.742 293.623 134.498 293.433 135.341L293.256 136.171C292.797 138.229 291.66 140.073 290.028 141.407C288.395 142.74 286.361 143.487 284.253 143.526H259.036C257.036 143.57 255.1 142.822 253.649 141.444C252.199 140.066 251.352 138.17 251.294 136.171V135.341C251.274 134.522 250.93 133.744 250.337 133.178C249.744 132.612 248.951 132.304 248.131 132.322H221.587C217.227 132.399 213.047 134.072 209.838 137.023C206.628 139.974 204.611 143.999 204.168 148.337L182.866 392.254C182.641 394.293 182.853 396.357 183.488 398.308C184.123 400.259 185.167 402.053 186.549 403.569C187.931 405.085 189.621 406.29 191.505 407.102C193.389 407.914 195.425 408.316 197.476 408.28H299.527C303.888 408.2 308.068 406.525 311.277 403.572C314.487 400.619 316.504 396.593 316.946 392.254L338.292 148.337C338.516 146.297 338.302 144.234 337.666 142.283C337.029 140.333 335.984 138.54 334.601 137.025C333.218 135.51 331.527 134.306 329.643 133.496C327.758 132.685 325.722 132.285 323.671 132.322Z" fill="#125629"/>
<path opacity="0.7" d="M323.671 132.322H297.127C296.262 132.34 295.429 132.648 294.759 133.195C294.09 133.742 293.623 134.498 293.433 135.341L293.256 136.171C292.797 138.229 291.66 140.073 290.028 141.407C288.395 142.74 286.361 143.487 284.253 143.526H259.036C257.036 143.57 255.1 142.822 253.649 141.444C252.199 140.066 251.352 138.17 251.294 136.171V135.341C251.274 134.522 250.93 133.744 250.337 133.178C249.744 132.612 248.951 132.304 248.131 132.322H221.587C217.227 132.399 213.047 134.072 209.838 137.023C206.628 139.974 204.611 143.999 204.168 148.337L182.866 392.254C182.641 394.293 182.853 396.357 183.488 398.308C184.123 400.259 185.167 402.053 186.549 403.569C187.931 405.085 189.621 406.29 191.505 407.102C193.389 407.914 195.425 408.316 197.476 408.28H299.527C303.888 408.2 308.068 406.525 311.277 403.572C314.487 400.619 316.504 396.593 316.946 392.254L338.292 148.337C338.516 146.297 338.302 144.234 337.666 142.283C337.029 140.333 335.984 138.54 334.601 137.025C333.218 135.51 331.527 134.306 329.643 133.496C327.758 132.685 325.722 132.285 323.671 132.322Z" fill="white"/>
<path d="M313.33 244.514H259.136C258.68 244.522 258.228 244.432 257.809 244.251C257.39 244.071 257.015 243.803 256.707 243.467C256.4 243.13 256.168 242.732 256.026 242.298C255.884 241.865 255.836 241.407 255.884 240.953L259.965 194.291C260.063 193.326 260.51 192.431 261.224 191.775C261.937 191.118 262.867 190.746 263.836 190.73H318.03C318.487 190.721 318.94 190.809 319.359 190.989C319.779 191.169 320.155 191.437 320.463 191.774C320.771 192.111 321.003 192.51 321.144 192.944C321.285 193.378 321.332 193.837 321.282 194.291L317.201 240.953C317.101 241.917 316.653 242.811 315.94 243.467C315.227 244.123 314.298 244.495 313.33 244.514Z" fill="white"/>
<path d="M295.302 390.418H204.61C203.477 390.439 202.352 390.218 201.311 389.77C200.27 389.322 199.336 388.657 198.572 387.82C197.808 386.983 197.231 385.992 196.88 384.915C196.529 383.837 196.412 382.697 196.536 381.57C196.782 379.174 197.896 376.951 199.669 375.321C201.442 373.691 203.75 372.766 206.158 372.722H296.85C297.984 372.701 299.108 372.922 300.15 373.37C301.191 373.818 302.125 374.482 302.889 375.32C303.653 376.157 304.229 377.148 304.58 378.225C304.931 379.303 305.049 380.443 304.924 381.57C304.681 383.967 303.567 386.191 301.794 387.822C300.021 389.452 297.711 390.376 295.302 390.418Z" fill="white"/>
<path d="M302.524 177.9H219.32C218.682 177.919 218.048 177.8 217.46 177.551C216.873 177.302 216.346 176.929 215.916 176.457C215.486 175.986 215.164 175.426 214.971 174.818C214.777 174.21 214.718 173.567 214.796 172.934L215.471 165.192C215.611 163.85 216.237 162.605 217.231 161.693C218.225 160.78 219.519 160.262 220.868 160.237H304.073C304.708 160.226 305.338 160.35 305.922 160.6C306.505 160.851 307.029 161.223 307.458 161.692C307.887 162.16 308.211 162.715 308.409 163.318C308.607 163.922 308.675 164.561 308.607 165.192L307.921 172.934C307.784 174.278 307.159 175.526 306.165 176.441C305.17 177.356 303.875 177.875 302.524 177.9Z" fill="white"/>
<path d="M319.446 164.927C319.408 165.301 319.234 165.649 318.957 165.904C318.679 166.159 318.318 166.303 317.942 166.309C317.765 166.312 317.59 166.277 317.427 166.207C317.265 166.136 317.119 166.032 317 165.902C316.881 165.771 316.791 165.617 316.736 165.448C316.681 165.28 316.662 165.103 316.681 164.927C316.719 164.553 316.893 164.207 317.171 163.954C317.449 163.701 317.81 163.559 318.185 163.555C318.361 163.551 318.537 163.585 318.699 163.654C318.861 163.723 319.007 163.825 319.126 163.955C319.246 164.085 319.336 164.239 319.391 164.406C319.446 164.574 319.465 164.751 319.446 164.927Z" fill="white"/>
<path d="M319.081 169.063C319.046 169.437 318.874 169.785 318.598 170.04C318.323 170.295 317.963 170.439 317.588 170.446C317.411 170.448 317.236 170.413 317.073 170.343C316.911 170.273 316.765 170.169 316.646 170.038C316.527 169.908 316.437 169.753 316.382 169.585C316.327 169.417 316.308 169.239 316.327 169.063C316.362 168.689 316.534 168.342 316.81 168.087C317.085 167.832 317.445 167.687 317.82 167.681C317.997 167.678 318.172 167.713 318.335 167.783C318.497 167.854 318.643 167.957 318.762 168.088C318.881 168.219 318.971 168.373 319.026 168.541C319.081 168.709 319.1 168.887 319.081 169.063Z" fill="white"/>
<path d="M318.727 173.189C318.689 173.563 318.515 173.911 318.238 174.166C317.961 174.421 317.599 174.565 317.223 174.571C317.046 174.574 316.871 174.539 316.708 174.468C316.546 174.398 316.401 174.294 316.281 174.164C316.162 174.033 316.072 173.878 316.017 173.71C315.962 173.542 315.943 173.364 315.962 173.189C316 172.814 316.174 172.466 316.451 172.211C316.729 171.956 317.09 171.812 317.466 171.806C317.643 171.803 317.818 171.838 317.981 171.909C318.143 171.979 318.289 172.083 318.408 172.214C318.527 172.344 318.617 172.499 318.672 172.667C318.727 172.835 318.746 173.013 318.727 173.189Z" fill="white"/>
<path d="M306.594 321.492H205.362C204.906 321.501 204.453 321.413 204.033 321.233C203.614 321.053 203.237 320.785 202.93 320.448C202.622 320.111 202.389 319.712 202.248 319.278C202.107 318.844 202.06 318.384 202.11 317.931L206.822 264.677C206.919 263.712 207.367 262.817 208.081 262.161C208.794 261.504 209.724 261.132 210.693 261.116H311.892C312.347 261.108 312.799 261.198 313.217 261.378C313.636 261.559 314.01 261.827 314.317 262.164C314.624 262.501 314.855 262.899 314.996 263.333C315.136 263.766 315.183 264.224 315.133 264.677L310.476 317.931C310.379 318.897 309.929 319.794 309.213 320.451C308.498 321.107 307.565 321.478 306.594 321.492Z" fill="white"/>
<path d="M233.211 332.618H201.69C201.58 332.621 201.47 332.599 201.368 332.556C201.267 332.512 201.176 332.447 201.101 332.366C201.027 332.284 200.971 332.187 200.937 332.082C200.903 331.977 200.892 331.866 200.905 331.756C200.927 331.52 201.035 331.3 201.208 331.139C201.381 330.978 201.608 330.886 201.845 330.882H233.366C233.478 330.88 233.588 330.901 233.691 330.945C233.793 330.99 233.885 331.056 233.959 331.139C234.034 331.221 234.09 331.32 234.123 331.426C234.156 331.533 234.166 331.645 234.151 331.756C234.127 331.99 234.018 332.206 233.845 332.365C233.672 332.524 233.446 332.614 233.211 332.618Z" fill="white"/>
<path d="M272.607 332.618H238.774C238.663 332.622 238.552 332.602 238.449 332.559C238.346 332.516 238.254 332.452 238.178 332.37C238.103 332.288 238.046 332.191 238.011 332.085C237.976 331.979 237.965 331.866 237.978 331.756C238 331.52 238.108 331.3 238.281 331.139C238.455 330.978 238.681 330.886 238.918 330.882H272.762C272.873 330.88 272.984 330.901 273.086 330.945C273.189 330.99 273.28 331.056 273.355 331.139C273.43 331.221 273.485 331.32 273.519 331.426C273.552 331.533 273.561 331.645 273.547 331.756C273.523 331.99 273.414 332.206 273.24 332.365C273.067 332.524 272.842 332.614 272.607 332.618Z" fill="white"/>
<path d="M222.306 340.305H201.027C200.915 340.307 200.804 340.286 200.701 340.242C200.598 340.197 200.506 340.132 200.43 340.049C200.355 339.966 200.298 339.868 200.263 339.762C200.229 339.655 200.218 339.543 200.23 339.431C200.254 339.196 200.363 338.978 200.536 338.818C200.709 338.657 200.934 338.564 201.17 338.558H222.494C222.605 338.557 222.716 338.58 222.818 338.625C222.92 338.67 223.011 338.735 223.086 338.818C223.161 338.9 223.218 338.997 223.253 339.103C223.289 339.209 223.301 339.32 223.29 339.431C223.265 339.674 223.151 339.898 222.968 340.06C222.786 340.222 222.55 340.309 222.306 340.305Z" fill="white"/>
<path d="M262.83 340.305H227.902C227.79 340.307 227.679 340.286 227.576 340.242C227.474 340.197 227.381 340.132 227.306 340.049C227.23 339.966 227.174 339.868 227.139 339.762C227.105 339.655 227.093 339.543 227.106 339.431C227.13 339.195 227.241 338.975 227.416 338.814C227.591 338.653 227.819 338.562 228.057 338.558H262.974C263.086 338.555 263.197 338.577 263.3 338.621C263.402 338.665 263.495 338.731 263.57 338.814C263.645 338.897 263.702 338.994 263.737 339.101C263.771 339.208 263.783 339.32 263.77 339.431C263.748 339.667 263.64 339.887 263.467 340.048C263.293 340.209 263.067 340.301 262.83 340.305Z" fill="white"/>
<path d="M257.189 347.981H200.352C200.24 347.985 200.13 347.965 200.027 347.922C199.924 347.879 199.831 347.814 199.756 347.732C199.68 347.65 199.623 347.553 199.589 347.447C199.554 347.341 199.543 347.229 199.556 347.118C199.58 346.881 199.69 346.662 199.865 346.501C200.041 346.34 200.269 346.249 200.507 346.244H257.344C257.455 346.244 257.566 346.267 257.668 346.311C257.77 346.356 257.861 346.422 257.936 346.504C258.011 346.587 258.068 346.684 258.104 346.79C258.139 346.895 258.151 347.007 258.14 347.118C258.114 347.353 258.002 347.57 257.827 347.729C257.652 347.887 257.425 347.977 257.189 347.981Z" fill="white"/>
<path d="M266.546 347.981H262.797C262.685 347.985 262.574 347.965 262.471 347.922C262.369 347.879 262.276 347.814 262.2 347.732C262.125 347.65 262.068 347.553 262.033 347.447C261.999 347.341 261.987 347.229 262 347.118C262.022 346.882 262.13 346.663 262.303 346.502C262.477 346.34 262.704 346.249 262.94 346.244H266.701C266.812 346.242 266.923 346.263 267.026 346.308C267.128 346.352 267.22 346.418 267.294 346.501C267.369 346.584 267.424 346.682 267.458 346.788C267.491 346.895 267.5 347.007 267.486 347.118C267.462 347.352 267.353 347.569 267.18 347.728C267.006 347.887 266.781 347.977 266.546 347.981Z" fill="white"/>
<path d="M226.21 355.667H199.666C199.555 355.668 199.444 355.645 199.342 355.6C199.24 355.556 199.149 355.49 199.074 355.408C198.999 355.325 198.942 355.228 198.907 355.122C198.872 355.017 198.859 354.905 198.87 354.794C198.894 354.557 199.004 354.337 199.18 354.176C199.355 354.015 199.583 353.924 199.821 353.92H226.365C226.477 353.918 226.588 353.939 226.691 353.984C226.794 354.028 226.886 354.093 226.961 354.176C227.037 354.259 227.094 354.357 227.128 354.463C227.163 354.57 227.174 354.682 227.161 354.794C227.137 355.03 227.027 355.25 226.852 355.411C226.676 355.572 226.448 355.663 226.21 355.667Z" fill="white"/>
<path d="M264.821 355.667H231.773C231.662 355.668 231.552 355.645 231.45 355.6C231.348 355.556 231.256 355.49 231.181 355.408C231.106 355.325 231.049 355.228 231.014 355.122C230.979 355.017 230.966 354.905 230.977 354.794C231.001 354.557 231.112 354.337 231.287 354.176C231.462 354.015 231.69 353.924 231.928 353.92H264.964C265.076 353.918 265.187 353.939 265.29 353.984C265.393 354.028 265.485 354.093 265.561 354.176C265.636 354.259 265.693 354.357 265.728 354.463C265.762 354.57 265.773 354.682 265.761 354.794C265.737 355.029 265.628 355.247 265.455 355.407C265.282 355.568 265.057 355.661 264.821 355.667Z" fill="white"/>
<path d="M231.685 363.343H199.003C198.891 363.346 198.78 363.324 198.678 363.28C198.575 363.236 198.484 363.17 198.409 363.087C198.335 363.004 198.279 362.906 198.246 362.799C198.213 362.692 198.203 362.58 198.217 362.469C198.242 362.236 198.351 362.019 198.524 361.86C198.697 361.701 198.922 361.611 199.157 361.607H231.829C231.94 361.603 232.051 361.623 232.154 361.666C232.257 361.709 232.349 361.773 232.425 361.855C232.5 361.937 232.557 362.035 232.592 362.141C232.627 362.246 232.638 362.359 232.625 362.469C232.603 362.705 232.495 362.925 232.322 363.086C232.148 363.247 231.922 363.339 231.685 363.343Z" fill="white"/>
<path d="M263.56 363.343H237.237C237.125 363.346 237.015 363.324 236.912 363.28C236.81 363.236 236.718 363.17 236.644 363.087C236.569 363.004 236.513 362.906 236.48 362.799C236.447 362.692 236.437 362.58 236.452 362.469C236.476 362.236 236.585 362.019 236.758 361.86C236.931 361.701 237.157 361.611 237.392 361.607H263.715C263.826 361.603 263.937 361.623 264.04 361.666C264.143 361.709 264.235 361.773 264.311 361.855C264.386 361.937 264.443 362.035 264.478 362.141C264.512 362.246 264.524 362.359 264.511 362.469C264.487 362.706 264.376 362.926 264.201 363.087C264.026 363.248 263.798 363.339 263.56 363.343Z" fill="white"/>
<path d="M312.047 240.091C311.951 240.201 311.834 240.291 311.702 240.356C311.571 240.421 311.428 240.459 311.282 240.468C311.136 240.478 310.99 240.458 310.851 240.41C310.713 240.362 310.586 240.287 310.476 240.19L265.208 196.99C265.002 196.782 264.886 196.502 264.886 196.21C264.886 195.918 265.002 195.637 265.208 195.43C265.304 195.32 265.421 195.23 265.552 195.165C265.683 195.1 265.826 195.062 265.972 195.052C266.118 195.043 266.265 195.063 266.403 195.111C266.541 195.159 266.669 195.233 266.778 195.331L312.047 238.531C312.253 238.738 312.368 239.019 312.368 239.311C312.368 239.603 312.253 239.883 312.047 240.091Z" fill="#125629"/>
<path d="M261.204 240.079C261.114 239.962 261.048 239.827 261.011 239.684C260.974 239.541 260.966 239.392 260.988 239.245C261.01 239.099 261.06 238.958 261.137 238.832C261.214 238.705 261.316 238.595 261.436 238.509L284.53 219.63C284.749 219.44 285.034 219.344 285.324 219.362C285.614 219.381 285.885 219.513 286.078 219.729C286.166 219.846 286.23 219.98 286.266 220.122C286.303 220.264 286.31 220.412 286.288 220.557C286.267 220.703 286.217 220.842 286.141 220.967C286.065 221.093 285.964 221.202 285.846 221.289L262.752 240.179C262.533 240.369 262.247 240.465 261.958 240.446C261.668 240.428 261.397 240.296 261.204 240.079Z" fill="#125629"/>
<path d="M291.044 215.67C290.956 215.553 290.892 215.419 290.855 215.277C290.819 215.135 290.812 214.987 290.833 214.842C290.855 214.697 290.905 214.557 290.981 214.432C291.057 214.306 291.158 214.197 291.276 214.111L314.414 195.198C314.633 195.008 314.919 194.912 315.208 194.931C315.498 194.949 315.769 195.081 315.962 195.298C316.05 195.415 316.114 195.548 316.151 195.691C316.187 195.833 316.194 195.981 316.173 196.126C316.151 196.271 316.101 196.41 316.025 196.536C315.949 196.661 315.848 196.771 315.73 196.857L292.592 215.77C292.373 215.959 292.087 216.056 291.798 216.037C291.508 216.018 291.237 215.887 291.044 215.67Z" fill="#125629"/>
<g opacity="0.7">
<path d="M312.047 240.091C311.951 240.201 311.834 240.291 311.702 240.356C311.571 240.421 311.428 240.459 311.282 240.468C311.136 240.478 310.99 240.458 310.851 240.41C310.713 240.362 310.586 240.287 310.476 240.19L265.208 196.99C265.002 196.782 264.886 196.502 264.886 196.21C264.886 195.918 265.002 195.637 265.208 195.43C265.304 195.32 265.421 195.23 265.552 195.165C265.683 195.1 265.826 195.062 265.972 195.052C266.118 195.043 266.265 195.063 266.403 195.111C266.541 195.159 266.669 195.233 266.778 195.331L312.047 238.531C312.253 238.738 312.368 239.019 312.368 239.311C312.368 239.603 312.253 239.883 312.047 240.091Z" fill="white"/>
</g>
<g opacity="0.7">
<path d="M261.204 240.079C261.114 239.962 261.048 239.827 261.011 239.684C260.974 239.541 260.966 239.392 260.988 239.245C261.01 239.099 261.06 238.958 261.137 238.832C261.214 238.705 261.316 238.595 261.436 238.509L284.53 219.63C284.749 219.44 285.034 219.344 285.324 219.362C285.614 219.381 285.885 219.513 286.078 219.729C286.166 219.846 286.23 219.98 286.266 220.122C286.303 220.264 286.31 220.412 286.288 220.557C286.267 220.703 286.217 220.842 286.141 220.967C286.065 221.093 285.964 221.202 285.846 221.289L262.752 240.179C262.533 240.369 262.247 240.465 261.958 240.446C261.668 240.428 261.397 240.296 261.204 240.079Z" fill="white"/>
</g>
<g opacity="0.7">
<path d="M291.044 215.67C290.956 215.553 290.892 215.419 290.855 215.277C290.819 215.135 290.812 214.987 290.833 214.842C290.855 214.697 290.905 214.557 290.981 214.432C291.057 214.306 291.158 214.197 291.276 214.111L314.414 195.198C314.633 195.008 314.919 194.912 315.208 194.931C315.498 194.949 315.769 195.081 315.962 195.298C316.05 195.415 316.114 195.548 316.151 195.691C316.187 195.833 316.194 195.981 316.173 196.126C316.151 196.271 316.101 196.41 316.025 196.536C315.949 196.661 315.848 196.771 315.73 196.857L292.592 215.77C292.373 215.959 292.087 216.056 291.798 216.037C291.508 216.018 291.237 215.887 291.044 215.67Z" fill="white"/>
</g>
<path d="M183.308 127.013H168.93C167.538 127.019 166.205 127.576 165.222 128.563C164.24 129.549 163.688 130.885 163.688 132.278V146.656C163.688 148.052 164.243 149.391 165.23 150.378C166.217 151.366 167.556 151.92 168.953 151.92H183.331C184.727 151.92 186.066 151.366 187.053 150.378C188.04 149.391 188.595 148.052 188.595 146.656V132.278C188.595 131.584 188.458 130.898 188.192 130.258C187.926 129.618 187.537 129.036 187.045 128.547C186.554 128.058 185.971 127.671 185.33 127.407C184.689 127.144 184.002 127.01 183.308 127.013ZM176.153 132.101C178.309 132.101 179.471 133.859 179.471 136.016C179.471 138.173 178.309 139.931 176.153 139.931C173.996 139.931 172.835 138.184 172.835 136.016C172.835 133.848 173.985 132.101 176.153 132.101ZM184.79 146.777H167.504C167.434 146.777 167.365 146.764 167.3 146.737C167.236 146.711 167.177 146.672 167.128 146.622L168.234 143.603C168.579 142.651 169.209 141.828 170.038 141.246C170.867 140.665 171.855 140.352 172.868 140.351H179.404C180.419 140.351 181.408 140.663 182.239 141.245C183.07 141.827 183.702 142.65 184.049 143.603L185.155 146.622C185.108 146.671 185.051 146.71 184.989 146.737C184.926 146.763 184.859 146.777 184.79 146.777Z" fill="#125629"/>
<path opacity="0.7" d="M183.308 127.013H168.93C167.538 127.019 166.205 127.576 165.222 128.563C164.24 129.549 163.688 130.885 163.688 132.278V146.656C163.688 148.052 164.243 149.391 165.23 150.378C166.217 151.366 167.556 151.92 168.953 151.92H183.331C184.727 151.92 186.066 151.366 187.053 150.378C188.04 149.391 188.595 148.052 188.595 146.656V132.278C188.595 131.584 188.458 130.898 188.192 130.258C187.926 129.618 187.537 129.036 187.045 128.547C186.554 128.058 185.971 127.671 185.33 127.407C184.689 127.144 184.002 127.01 183.308 127.013ZM176.153 132.101C178.309 132.101 179.471 133.859 179.471 136.016C179.471 138.173 178.309 139.931 176.153 139.931C173.996 139.931 172.835 138.184 172.835 136.016C172.835 133.848 173.985 132.101 176.153 132.101ZM184.79 146.777H167.504C167.434 146.777 167.365 146.764 167.3 146.737C167.236 146.711 167.177 146.672 167.128 146.622L168.234 143.603C168.579 142.651 169.209 141.828 170.038 141.246C170.867 140.665 171.855 140.352 172.868 140.351H179.404C180.419 140.351 181.408 140.663 182.239 141.245C183.07 141.827 183.702 142.65 184.049 143.603L185.155 146.622C185.108 146.671 185.051 146.71 184.989 146.737C184.926 146.763 184.859 146.777 184.79 146.777Z" fill="white"/>
<path d="M132.344 185.941H121.461C120.53 185.939 119.609 186.121 118.749 186.476C117.889 186.831 117.107 187.353 116.449 188.01C115.79 188.667 115.268 189.448 114.911 190.308C114.555 191.167 114.371 192.089 114.371 193.019V203.902C114.371 205.782 115.118 207.586 116.448 208.915C117.777 210.245 119.581 210.992 121.461 210.992H132.344C133.274 210.992 134.196 210.808 135.055 210.452C135.915 210.095 136.696 209.573 137.353 208.915C138.01 208.256 138.532 207.474 138.887 206.614C139.242 205.754 139.424 204.833 139.422 203.902V193.019C139.424 192.089 139.242 191.168 138.887 190.309C138.531 189.449 138.01 188.668 137.352 188.011C136.695 187.353 135.914 186.832 135.054 186.477C134.195 186.121 133.274 185.939 132.344 185.941ZM126.902 204.4C126.902 204.4 122.478 199.545 122.478 197.067C122.478 195.881 122.95 194.743 123.789 193.904C124.628 193.065 125.766 192.593 126.952 192.593C128.139 192.593 129.277 193.065 130.116 193.904C130.955 194.743 131.426 195.881 131.426 197.067C131.371 199.545 126.902 204.4 126.902 204.4Z" fill="#125629"/>
<path d="M126.902 195.032C126.497 195.03 126.1 195.148 125.762 195.372C125.423 195.596 125.159 195.916 125.003 196.29C124.847 196.664 124.805 197.077 124.884 197.475C124.963 197.873 125.158 198.238 125.445 198.525C125.731 198.812 126.097 199.007 126.495 199.085C126.893 199.164 127.305 199.123 127.679 198.966C128.054 198.81 128.373 198.546 128.597 198.208C128.821 197.87 128.94 197.473 128.937 197.067C128.937 196.527 128.723 196.01 128.341 195.628C127.96 195.246 127.442 195.032 126.902 195.032Z" fill="#125629"/>
<g opacity="0.7">
<path d="M132.344 185.941H121.461C120.53 185.939 119.609 186.121 118.749 186.476C117.889 186.831 117.107 187.353 116.449 188.01C115.79 188.667 115.268 189.448 114.911 190.308C114.555 191.167 114.371 192.089 114.371 193.019V203.902C114.371 205.782 115.118 207.586 116.448 208.915C117.777 210.245 119.581 210.992 121.461 210.992H132.344C133.274 210.992 134.196 210.808 135.055 210.452C135.915 210.095 136.696 209.573 137.353 208.915C138.01 208.256 138.532 207.474 138.887 206.614C139.242 205.754 139.424 204.833 139.422 203.902V193.019C139.424 192.089 139.242 191.168 138.887 190.309C138.531 189.449 138.01 188.668 137.352 188.011C136.695 187.353 135.914 186.832 135.054 186.477C134.195 186.121 133.274 185.939 132.344 185.941ZM126.902 204.4C126.902 204.4 122.478 199.545 122.478 197.067C122.478 195.881 122.95 194.743 123.789 193.904C124.628 193.065 125.766 192.593 126.952 192.593C128.139 192.593 129.277 193.065 130.116 193.904C130.955 194.743 131.426 195.881 131.426 197.067C131.371 199.545 126.902 204.4 126.902 204.4Z" fill="white"/>
<path d="M126.902 195.032C126.497 195.03 126.1 195.148 125.762 195.372C125.423 195.596 125.159 195.916 125.003 196.29C124.847 196.664 124.806 197.077 124.884 197.475C124.963 197.873 125.158 198.238 125.445 198.525C125.731 198.812 126.097 199.007 126.495 199.085C126.893 199.164 127.305 199.123 127.68 198.966C128.054 198.81 128.373 198.546 128.597 198.208C128.821 197.87 128.94 197.473 128.938 197.067C128.938 196.527 128.723 196.01 128.341 195.628C127.96 195.246 127.442 195.032 126.902 195.032Z" fill="white"/>
</g>
<path d="M371.284 155.094L378.573 150.383L371.284 145.66V155.094Z" fill="#125629"/>
<path d="M380.674 137.52H366.783C365.214 137.52 363.708 138.144 362.599 139.253C361.489 140.363 360.866 141.868 360.866 143.437V157.329C360.869 158.897 361.493 160.4 362.602 161.509C363.711 162.618 365.214 163.243 366.783 163.246H380.674C382.243 163.246 383.749 162.622 384.858 161.513C385.968 160.403 386.591 158.898 386.591 157.329V143.437C386.593 142.66 386.441 141.89 386.144 141.171C385.847 140.453 385.411 139.8 384.861 139.25C384.312 138.7 383.659 138.264 382.94 137.968C382.222 137.671 381.452 137.519 380.674 137.52ZM373.729 159.64C371.897 159.64 370.107 159.097 368.584 158.079C367.062 157.062 365.875 155.615 365.175 153.923C364.475 152.231 364.292 150.369 364.65 148.573C365.008 146.777 365.891 145.127 367.187 143.833C368.482 142.539 370.133 141.658 371.929 141.302C373.726 140.946 375.587 141.131 377.279 141.834C378.97 142.536 380.415 143.724 381.431 145.248C382.447 146.772 382.988 148.563 382.986 150.394C382.984 151.608 382.744 152.81 382.278 153.931C381.812 155.053 381.129 156.071 380.27 156.929C379.41 157.786 378.39 158.466 377.268 158.929C376.145 159.393 374.943 159.63 373.729 159.629V159.64Z" fill="#125629"/>
<g opacity="0.7">
<path d="M371.284 155.094L378.573 150.383L371.284 145.66V155.094Z" fill="white"/>
<path d="M380.674 137.52H366.783C365.214 137.52 363.708 138.144 362.599 139.253C361.489 140.363 360.866 141.868 360.866 143.437V157.329C360.869 158.897 361.493 160.4 362.602 161.509C363.711 162.618 365.214 163.243 366.783 163.246H380.674C382.243 163.246 383.749 162.622 384.858 161.513C385.968 160.403 386.591 158.898 386.591 157.329V143.437C386.593 142.66 386.441 141.89 386.144 141.171C385.847 140.453 385.411 139.8 384.861 139.25C384.312 138.7 383.659 138.264 382.94 137.968C382.222 137.671 381.452 137.519 380.674 137.52ZM373.729 159.64C371.897 159.64 370.107 159.097 368.584 158.079C367.062 157.062 365.875 155.615 365.175 153.923C364.475 152.231 364.292 150.369 364.65 148.573C365.008 146.777 365.891 145.127 367.187 143.833C368.482 142.539 370.133 141.658 371.929 141.302C373.726 140.946 375.587 141.131 377.279 141.834C378.97 142.536 380.415 143.724 381.431 145.248C382.447 146.772 382.988 148.563 382.986 150.394C382.984 151.608 382.744 152.81 382.278 153.931C381.812 155.053 381.129 156.071 380.27 156.929C379.41 157.786 378.39 158.466 377.268 158.929C376.145 159.393 374.943 159.63 373.729 159.629V159.64Z" fill="white"/>
</g>
<path d="M394.311 190.796C394.311 190.508 394.311 190.221 394.311 189.944L395.981 189.015C395.86 188.225 395.652 187.449 395.362 186.704H393.46C393.218 186.185 392.929 185.689 392.597 185.222L393.581 183.596C393.077 182.972 392.51 182.401 391.889 181.893L390.252 182.877C389.787 182.551 389.295 182.266 388.781 182.025V180.112C388.033 179.829 387.259 179.622 386.47 179.493L385.541 181.163C385.264 181.163 384.977 181.163 384.689 181.163C384.401 181.163 384.125 181.163 383.837 181.163L382.908 179.493C382.12 179.625 381.346 179.832 380.597 180.112V182.025C380.081 182.264 379.589 182.549 379.126 182.877L377.489 181.893C376.862 182.398 376.291 182.969 375.786 183.596L376.77 185.222C376.446 185.691 376.161 186.187 375.918 186.704H374.016C373.727 187.451 373.516 188.225 373.386 189.015L375.056 189.944C375.056 190.221 375.056 190.508 375.056 190.796C375.056 191.084 375.056 191.371 375.056 191.648L373.386 192.577C373.515 193.367 373.726 194.142 374.016 194.888H375.918C376.161 195.405 376.446 195.901 376.77 196.37L375.786 198.007C376.294 198.628 376.865 199.195 377.489 199.699L379.126 198.715C379.586 199.047 380.079 199.333 380.597 199.567V201.48C381.344 201.765 382.119 201.973 382.908 202.099L383.837 200.429C384.125 200.429 384.401 200.429 384.689 200.429C384.977 200.429 385.264 200.429 385.541 200.429L386.47 202.099C387.26 201.975 388.035 201.768 388.781 201.48V199.567C389.297 199.33 389.79 199.045 390.252 198.715L391.889 199.699C392.507 199.192 393.074 198.625 393.581 198.007L392.597 196.37C392.929 195.904 393.218 195.407 393.46 194.888H395.362C395.653 194.143 395.861 193.368 395.981 192.577L394.311 191.648C394.289 191.338 394.311 191.084 394.311 190.796ZM384.667 197.344C383.372 197.344 382.106 196.96 381.029 196.24C379.952 195.521 379.113 194.498 378.618 193.302C378.122 192.105 377.992 190.789 378.245 189.519C378.498 188.249 379.121 187.082 380.037 186.166C380.953 185.251 382.119 184.627 383.389 184.374C384.66 184.122 385.976 184.251 387.172 184.747C388.369 185.243 389.391 186.082 390.111 187.158C390.83 188.235 391.214 189.501 391.214 190.796C391.214 192.533 390.525 194.198 389.297 195.426C388.069 196.654 386.403 197.344 384.667 197.344Z" fill="#125629"/>
<path opacity="0.7" d="M394.311 190.796C394.311 190.508 394.311 190.221 394.311 189.944L395.981 189.015C395.86 188.225 395.652 187.449 395.362 186.704H393.46C393.218 186.185 392.929 185.689 392.597 185.222L393.581 183.596C393.077 182.972 392.51 182.401 391.889 181.893L390.252 182.877C389.787 182.551 389.295 182.266 388.781 182.025V180.112C388.033 179.829 387.259 179.622 386.47 179.493L385.541 181.163C385.264 181.163 384.977 181.163 384.689 181.163C384.401 181.163 384.125 181.163 383.837 181.163L382.908 179.493C382.12 179.625 381.346 179.832 380.597 180.112V182.025C380.081 182.264 379.589 182.549 379.126 182.877L377.489 181.893C376.862 182.398 376.291 182.969 375.786 183.596L376.77 185.222C376.446 185.691 376.161 186.187 375.918 186.704H374.016C373.727 187.451 373.516 188.225 373.386 189.015L375.056 189.944C375.056 190.221 375.056 190.508 375.056 190.796C375.056 191.084 375.056 191.371 375.056 191.648L373.386 192.577C373.515 193.367 373.726 194.142 374.016 194.888H375.918C376.161 195.405 376.446 195.901 376.77 196.37L375.786 198.007C376.294 198.628 376.865 199.195 377.489 199.699L379.126 198.715C379.586 199.047 380.079 199.333 380.597 199.567V201.48C381.344 201.765 382.119 201.973 382.908 202.099L383.837 200.429C384.125 200.429 384.401 200.429 384.689 200.429C384.977 200.429 385.264 200.429 385.541 200.429L386.47 202.099C387.26 201.975 388.035 201.768 388.781 201.48V199.567C389.297 199.33 389.79 199.045 390.252 198.715L391.889 199.699C392.507 199.192 393.074 198.625 393.581 198.007L392.597 196.37C392.929 195.904 393.218 195.407 393.46 194.888H395.362C395.653 194.143 395.861 193.368 395.981 192.577L394.311 191.648C394.289 191.338 394.311 191.084 394.311 190.796ZM384.667 197.344C383.372 197.344 382.106 196.96 381.029 196.24C379.952 195.521 379.113 194.498 378.618 193.302C378.122 192.105 377.992 190.789 378.245 189.519C378.498 188.249 379.121 187.082 380.037 186.166C380.953 185.251 382.119 184.627 383.389 184.374C384.66 184.122 385.976 184.251 387.172 184.747C388.369 185.243 389.391 186.082 390.111 187.158C390.83 188.235 391.214 189.501 391.214 190.796C391.214 192.533 390.525 194.198 389.297 195.426C388.069 196.654 386.403 197.344 384.667 197.344Z" fill="white"/>
<path d="M369.105 223.677C369.105 223.246 369.105 222.826 369.05 222.406L371.55 221.023C371.362 219.836 371.05 218.672 370.621 217.55L367.767 217.606C367.407 216.831 366.977 216.091 366.484 215.394L367.955 212.949C367.202 212.019 366.353 211.17 365.422 210.417L362.978 211.876C362.278 211.391 361.538 210.965 360.766 210.605V207.751C359.648 207.32 358.488 207.009 357.304 206.822L355.922 209.322C355.502 209.322 355.081 209.322 354.65 209.322C354.219 209.322 353.798 209.322 353.378 209.322L352.029 206.822C350.846 207.011 349.686 207.323 348.567 207.751V210.605C347.795 210.965 347.055 211.39 346.355 211.876L343.966 210.417C343.032 211.17 342.18 212.019 341.422 212.949L342.893 215.394C342.403 216.091 341.978 216.831 341.621 217.606L338.768 217.55C338.333 218.671 338.022 219.835 337.839 221.023L340.338 222.406C340.25 223.251 340.25 224.104 340.338 224.949L337.839 226.343C338.023 227.527 338.334 228.688 338.768 229.805L341.621 229.749C341.975 230.525 342.401 231.265 342.893 231.961L341.422 234.406C342.18 235.336 343.032 236.185 343.966 236.938L346.41 235.478C347.107 235.969 347.848 236.394 348.622 236.75V239.604C349.739 240.037 350.9 240.349 352.084 240.533L353.478 238.033C354.323 238.122 355.176 238.122 356.021 238.033L357.404 240.533C358.588 240.351 359.749 240.04 360.866 239.604V236.75C361.64 236.394 362.38 235.968 363.078 235.478L365.522 236.938C366.452 236.185 367.301 235.336 368.055 234.406L366.584 231.961C367.079 231.266 367.509 230.525 367.867 229.749L370.72 229.805C371.148 228.686 371.46 227.526 371.649 226.343L369.15 224.949C369.083 224.518 369.105 224.109 369.105 223.677ZM354.727 229.362C353.603 229.362 352.504 229.029 351.569 228.404C350.634 227.78 349.906 226.892 349.475 225.853C349.045 224.814 348.932 223.671 349.152 222.568C349.371 221.466 349.913 220.453 350.708 219.658C351.503 218.863 352.516 218.321 353.618 218.102C354.721 217.883 355.864 217.995 356.903 218.425C357.942 218.856 358.829 219.584 359.454 220.519C360.079 221.454 360.412 222.553 360.412 223.677C360.412 224.427 360.264 225.169 359.976 225.861C359.689 226.553 359.267 227.181 358.735 227.709C358.204 228.237 357.573 228.655 356.88 228.939C356.186 229.223 355.444 229.367 354.694 229.362H354.727Z" fill="#125629"/>
<path opacity="0.7" d="M369.105 223.677C369.105 223.246 369.105 222.826 369.05 222.406L371.55 221.023C371.362 219.836 371.05 218.672 370.621 217.55L367.767 217.606C367.407 216.831 366.977 216.091 366.484 215.394L367.955 212.949C367.202 212.019 366.353 211.17 365.422 210.417L362.978 211.876C362.278 211.391 361.538 210.965 360.766 210.605V207.751C359.648 207.32 358.488 207.009 357.304 206.822L355.922 209.322C355.502 209.322 355.081 209.322 354.65 209.322C354.219 209.322 353.798 209.322 353.378 209.322L352.029 206.822C350.846 207.011 349.686 207.323 348.567 207.751V210.605C347.795 210.965 347.055 211.39 346.355 211.876L343.966 210.417C343.032 211.17 342.18 212.019 341.422 212.949L342.893 215.394C342.403 216.091 341.978 216.831 341.621 217.606L338.768 217.55C338.333 218.671 338.022 219.835 337.839 221.023L340.338 222.406C340.25 223.251 340.25 224.104 340.338 224.949L337.839 226.343C338.023 227.527 338.334 228.688 338.768 229.805L341.621 229.749C341.975 230.525 342.401 231.265 342.893 231.961L341.422 234.406C342.18 235.336 343.032 236.185 343.966 236.938L346.41 235.478C347.107 235.969 347.848 236.394 348.622 236.75V239.604C349.739 240.037 350.9 240.349 352.084 240.533L353.478 238.033C354.323 238.122 355.176 238.122 356.021 238.033L357.404 240.533C358.588 240.351 359.749 240.04 360.866 239.604V236.75C361.64 236.394 362.38 235.968 363.078 235.478L365.522 236.938C366.452 236.185 367.301 235.336 368.055 234.406L366.584 231.961C367.079 231.266 367.509 230.525 367.867 229.749L370.72 229.805C371.148 228.686 371.46 227.526 371.649 226.343L369.15 224.949C369.083 224.518 369.105 224.109 369.105 223.677ZM354.727 229.362C353.603 229.362 352.504 229.029 351.569 228.404C350.634 227.78 349.906 226.892 349.475 225.853C349.045 224.814 348.932 223.671 349.152 222.568C349.371 221.466 349.913 220.453 350.708 219.658C351.503 218.863 352.516 218.321 353.618 218.102C354.721 217.883 355.864 217.995 356.903 218.425C357.942 218.856 358.829 219.584 359.454 220.519C360.079 221.454 360.412 222.553 360.412 223.677C360.412 224.427 360.264 225.169 359.976 225.861C359.689 226.553 359.267 227.181 358.735 227.709C358.204 228.237 357.573 228.655 356.88 228.939C356.186 229.223 355.444 229.367 354.694 229.362H354.727Z" fill="white"/>
<path d="M328.482 159.552V165.347L322.952 168.256C322.737 168.371 322.557 168.543 322.432 168.752C322.307 168.961 322.241 169.201 322.241 169.445C322.241 169.689 322.307 169.928 322.432 170.137C322.557 170.347 322.737 170.518 322.952 170.634L328.482 173.542V179.338C328.482 179.957 328.728 180.55 329.166 180.988C329.603 181.426 330.197 181.672 330.816 181.672H350.602C351.222 181.672 351.817 181.426 352.256 180.989C352.695 180.551 352.944 179.958 352.947 179.338V159.552C352.947 158.93 352.7 158.333 352.26 157.894C351.82 157.454 351.224 157.207 350.602 157.207H330.782C330.167 157.216 329.581 157.467 329.15 157.906C328.719 158.345 328.479 158.936 328.482 159.552Z" fill="#125629"/>
<g opacity="0.9">
<path d="M335.251 165.59H346.499C346.865 165.59 347.217 165.445 347.476 165.185C347.736 164.926 347.881 164.574 347.881 164.208C347.881 163.841 347.736 163.49 347.476 163.23C347.217 162.971 346.865 162.825 346.499 162.825H335.251C334.884 162.825 334.532 162.971 334.273 163.23C334.014 163.49 333.868 163.841 333.868 164.208C333.868 164.574 334.014 164.926 334.273 165.185C334.532 165.445 334.884 165.59 335.251 165.59Z" fill="white"/>
<path d="M346.499 168.112H335.251C334.884 168.112 334.532 168.258 334.273 168.517C334.014 168.776 333.868 169.128 333.868 169.494C333.868 169.861 334.014 170.213 334.273 170.472C334.532 170.731 334.884 170.877 335.251 170.877H346.499C346.865 170.877 347.217 170.731 347.476 170.472C347.736 170.213 347.881 169.861 347.881 169.494C347.881 169.128 347.736 168.776 347.476 168.517C347.217 168.258 346.865 168.112 346.499 168.112Z" fill="white"/>
<path d="M346.499 173.299H335.251C334.884 173.299 334.532 173.445 334.273 173.704C334.014 173.963 333.868 174.315 333.868 174.682C333.868 175.048 334.014 175.4 334.273 175.659C334.532 175.918 334.884 176.064 335.251 176.064H346.499C346.865 176.064 347.217 175.918 347.476 175.659C347.736 175.4 347.881 175.048 347.881 174.682C347.881 174.315 347.736 173.963 347.476 173.704C347.217 173.445 346.865 173.299 346.499 173.299Z" fill="white"/>
</g>
<path d="M216.665 150.416H221.388L223.821 155.028C223.982 155.329 224.221 155.58 224.513 155.755C224.805 155.931 225.139 156.023 225.48 156.023C225.821 156.023 226.155 155.931 226.448 155.755C226.74 155.58 226.979 155.329 227.139 155.028L229.572 150.416H234.295C234.743 150.416 235.187 150.328 235.601 150.156C236.015 149.984 236.391 149.732 236.708 149.414C237.024 149.097 237.275 148.72 237.445 148.305C237.616 147.891 237.703 147.447 237.702 146.998V129.402C237.702 128.499 237.343 127.632 236.704 126.993C236.065 126.354 235.198 125.996 234.295 125.996H216.665C216.218 125.994 215.774 126.081 215.36 126.252C214.946 126.423 214.57 126.673 214.253 126.99C213.937 127.307 213.686 127.683 213.515 128.097C213.345 128.511 213.257 128.954 213.259 129.402V147.098C213.282 147.986 213.651 148.83 214.287 149.45C214.924 150.07 215.777 150.416 216.665 150.416Z" fill="#125629"/>
<path opacity="0.9" d="M225.491 131.271L220.05 134.456V143.769H224.098V137.52H226.896V143.769H230.944V134.456L225.491 131.271Z" fill="white"/>
<path d="M269.643 403.458H265.44L262.73 398.304C262.596 398.054 262.396 397.846 262.153 397.7C261.909 397.555 261.631 397.478 261.348 397.478C261.064 397.478 260.786 397.555 260.543 397.7C260.299 397.846 260.1 398.054 259.965 398.304L257.256 403.458H252.942C251.913 403.458 250.925 403.867 250.197 404.595C249.469 405.323 249.06 406.31 249.06 407.34V424.04C249.06 425.07 249.469 426.057 250.197 426.785C250.925 427.513 251.913 427.922 252.942 427.922H269.643C270.672 427.922 271.66 427.513 272.388 426.785C273.116 426.057 273.525 425.07 273.525 424.04V407.34C273.525 406.31 273.116 405.323 272.388 404.595C271.66 403.867 270.672 403.458 269.643 403.458Z" fill="#125629"/>
<path opacity="0.9" d="M263.659 409.839C262.848 409.028 261.823 408.464 260.703 408.214C259.583 407.965 258.416 408.039 257.337 408.429C256.257 408.818 255.312 409.508 254.61 410.415C253.909 411.323 253.48 412.412 253.375 413.554C253.27 414.697 253.492 415.846 254.016 416.866C254.54 417.887 255.344 418.737 256.334 419.317C257.323 419.898 258.458 420.184 259.604 420.143C260.751 420.102 261.862 419.735 262.808 419.085C262.854 419.36 262.981 419.614 263.173 419.815L266.933 423.565C267.187 423.819 267.531 423.961 267.89 423.961C268.249 423.961 268.593 423.819 268.846 423.565C269.1 423.311 269.243 422.967 269.243 422.608C269.243 422.249 269.1 421.905 268.846 421.651L265.097 417.902C264.895 417.702 264.636 417.571 264.356 417.526C265.151 416.363 265.517 414.96 265.389 413.557C265.262 412.155 264.651 410.84 263.659 409.839ZM262.376 417.106C261.784 417.698 261.029 418.1 260.207 418.263C259.386 418.426 258.534 418.342 257.761 418.021C256.987 417.701 256.326 417.158 255.861 416.461C255.395 415.765 255.147 414.946 255.147 414.108C255.147 413.271 255.395 412.452 255.861 411.756C256.326 411.059 256.987 410.516 257.761 410.195C258.534 409.875 259.386 409.79 260.207 409.953C261.029 410.116 261.784 410.519 262.376 411.111C262.77 411.505 263.083 411.972 263.296 412.486C263.509 413 263.619 413.552 263.619 414.108C263.619 414.665 263.509 415.216 263.296 415.731C263.083 416.245 262.77 416.712 262.376 417.106Z" fill="white"/>
<path d="M448.251 292.238C448.251 292.238 439.237 314.58 430.411 316.991C421.585 319.402 408.291 317.444 408.291 317.444L404.177 318.55L400.14 317.953H399.996L395.45 317.842C395.286 317.856 395.122 317.822 394.976 317.746C394.831 317.669 394.71 317.552 394.629 317.409C394.548 317.266 394.509 317.103 394.517 316.939C394.525 316.774 394.581 316.616 394.676 316.482L396.302 314.27C396.439 314.088 396.628 313.953 396.844 313.883L401.179 312.489C401.351 312.451 401.528 312.451 401.699 312.489L408.335 313.54C408.335 313.54 426.75 310.521 428.63 308.817C430.511 307.114 436.052 289.252 436.052 289.252L448.251 292.238Z" fill="#EEC1BB"/>
<path opacity="0.1" d="M408.745 313.396L408.313 313.463L401.677 312.412C401.506 312.374 401.329 312.374 401.157 312.412L396.822 313.805C396.606 313.876 396.416 314.011 396.28 314.192L394.654 316.404C394.559 316.538 394.503 316.697 394.495 316.861C394.487 317.026 394.525 317.189 394.607 317.332C394.688 317.475 394.809 317.592 394.954 317.668C395.1 317.745 395.264 317.779 395.428 317.765L399.974 317.875H400.118L402.827 318.274C405.139 317.109 407.16 315.443 408.745 313.396Z" fill="black"/>
<path d="M453.692 270.107C447.145 267.962 437.932 272.883 434.404 293.499L447.996 297.514C447.996 297.514 463.049 273.182 453.692 270.107Z" fill="#125629"/>
<path d="M415.602 243.165C415.602 243.851 415.967 244.393 416.409 244.393C416.851 244.393 417.239 243.807 417.205 243.143C417.172 242.479 416.84 241.926 416.398 241.938C415.956 241.949 415.602 242.491 415.602 243.165Z" fill="#263238"/>
<path d="M418.278 243.84L415.06 249.16C415.06 249.16 416.166 250.421 418.588 249.492L418.278 243.84Z" fill="#D4827D"/>
<path d="M418.886 238.896C418.847 238.941 418.797 238.974 418.741 238.994C418.684 239.013 418.624 239.018 418.566 239.007C418.13 238.932 417.684 238.962 417.262 239.095C416.841 239.228 416.457 239.459 416.144 239.77C416.076 239.833 415.987 239.868 415.895 239.868C415.802 239.868 415.713 239.833 415.646 239.77C415.582 239.7 415.547 239.61 415.547 239.515C415.547 239.421 415.582 239.33 415.646 239.261C416.036 238.861 416.519 238.563 417.05 238.391C417.582 238.22 418.148 238.18 418.698 238.277C418.745 238.282 418.79 238.297 418.831 238.32C418.872 238.343 418.908 238.374 418.937 238.411C418.965 238.448 418.987 238.49 418.999 238.536C419.011 238.581 419.014 238.628 419.008 238.675C418.991 238.759 418.949 238.837 418.886 238.896Z" fill="#263238"/>
<path d="M441.626 238.343C442.124 247.335 442.533 251.139 438.562 256.249C432.225 261.724 421.43 262.598 418.245 253.938C415.38 246.196 415.049 232.78 423.366 228.146C424.777 227.36 426.328 226.859 427.933 226.673C429.537 226.488 431.162 226.62 432.715 227.063C434.268 227.505 435.719 228.25 436.984 229.254C438.249 230.257 439.304 231.501 440.089 232.913C441.009 234.582 441.535 236.439 441.626 238.343Z" fill="#EEC1BB"/>
<path d="M429.095 258.019L431.373 271.346L442.477 268.78L438.595 255.176L429.095 258.019Z" fill="#EEC1BB"/>
<path d="M421.098 239.007C421.663 233.167 419.65 239.914 416.951 232.205C414.252 224.496 427.005 218.236 429.04 219.674C431.075 221.112 429.913 223.312 436.66 224.562C438.5 224.855 440.171 225.807 441.36 227.243C442.549 228.678 443.174 230.497 443.119 232.36C443.119 232.36 447.001 234.151 445.619 242.491C444.604 247.834 442.329 252.858 438.983 257.145C438.983 257.145 436.428 254.513 432.347 256.935C430.754 255.895 429.407 254.522 428.398 252.909C426.584 250.188 426.02 247.6 423.532 247.379C418.333 246.903 420.91 240.931 421.098 239.007Z" fill="#263238"/>
<path d="M442.4 233.366C442.4 233.366 447.93 229.982 445.475 226.431C443.019 222.881 444.203 230.347 442.4 233.366Z" fill="#263238"/>
<path d="M422.68 242.402C421.453 243.773 420.821 245.575 420.922 247.412C421.076 249.845 423.465 250.277 425.346 248.95C427.226 247.622 429.006 245.034 427.923 242.9C427.682 242.434 427.328 242.036 426.894 241.743C426.46 241.449 425.959 241.269 425.437 241.22C424.915 241.17 424.389 241.252 423.908 241.459C423.426 241.666 423.004 241.99 422.68 242.402Z" fill="#FFC3BD"/>
<path opacity="0.1" d="M429.305 259.28L430.212 264.566C430.132 263.257 430.312 261.945 430.741 260.706C431.17 259.466 431.84 258.324 432.712 257.344C432.034 257.388 431.376 257.584 430.785 257.92C430.195 258.255 429.689 258.72 429.305 259.28Z" fill="black"/>
<path d="M351.232 293.654H348.058V312.379H351.232V293.654Z" fill="#125629"/>
<path opacity="0.7" d="M351.232 293.654H348.058V312.379H351.232V293.654Z" fill="white"/>
<path d="M329.422 256.47H321.514C320.092 256.47 318.727 257.035 317.721 258.041C316.715 259.047 316.15 260.412 316.15 261.834V298.476C316.15 299.181 316.289 299.878 316.558 300.529C316.828 301.18 317.223 301.771 317.721 302.269C318.219 302.767 318.811 303.162 319.461 303.432C320.112 303.702 320.81 303.84 321.514 303.84H329.422V256.47Z" fill="#125629"/>
<path d="M377.788 256.47H324.279C321.317 256.47 318.915 258.872 318.915 261.834V298.465C318.915 301.428 321.317 303.829 324.279 303.829H377.788C380.75 303.829 383.152 301.428 383.152 298.465V261.834C383.152 258.872 380.75 256.47 377.788 256.47Z" fill="#125629"/>
<path opacity="0.5" d="M377.788 256.47H324.279C321.317 256.47 318.915 258.872 318.915 261.834V298.465C318.915 301.428 321.317 303.829 324.279 303.829H377.788C380.75 303.829 383.152 301.428 383.152 298.465V261.834C383.152 258.872 380.75 256.47 377.788 256.47Z" fill="white"/>
<path d="M377.788 258.682H324.279C322.538 258.682 321.127 260.094 321.127 261.834V298.465C321.127 300.206 322.538 301.617 324.279 301.617H377.788C379.528 301.617 380.94 300.206 380.94 298.465V261.834C380.94 260.094 379.528 258.682 377.788 258.682Z" fill="#263238"/>
<path d="M338.093 320.231C338.186 317.229 339.444 314.381 341.6 312.291C343.756 310.2 346.642 309.031 349.645 309.031C352.649 309.031 355.534 310.2 357.69 312.291C359.847 314.381 361.105 317.229 361.197 320.231H338.093Z" fill="#125629"/>
<path d="M365.356 316.294H342.252V320.043H388.46V318.506L365.356 316.294Z" fill="#125629"/>
<path opacity="0.8" d="M365.356 316.294H342.252V320.043H388.46V318.506L365.356 316.294Z" fill="white"/>
<path d="M365.356 320.043H342.252V316.294L365.356 318.506V320.043Z" fill="#125629"/>
<path opacity="0.6" d="M365.356 320.043H342.252V316.294L365.356 318.506V320.043Z" fill="white"/>
<path d="M416.298 449.125H368.641C367.69 449.126 366.748 448.94 365.869 448.577C364.991 448.214 364.192 447.682 363.519 447.01C362.846 446.338 362.312 445.54 361.948 444.662C361.584 443.784 361.397 442.842 361.397 441.891V332.309C361.397 331.358 361.584 330.416 361.948 329.538C362.312 328.66 362.846 327.862 363.519 327.19C364.192 326.518 364.991 325.986 365.869 325.623C366.748 325.26 367.69 325.074 368.641 325.076H416.298C416.812 325.076 417.304 325.279 417.667 325.642C418.03 326.005 418.234 326.498 418.234 327.011C418.234 327.524 418.03 328.017 417.667 328.38C417.304 328.743 416.812 328.947 416.298 328.947H368.641C368.201 328.939 367.763 329.02 367.354 329.183C366.945 329.347 366.573 329.59 366.259 329.899C365.945 330.207 365.696 330.576 365.525 330.982C365.355 331.388 365.268 331.824 365.268 332.265V441.847C365.268 442.287 365.355 442.723 365.525 443.13C365.696 443.536 365.945 443.904 366.259 444.213C366.573 444.522 366.945 444.765 367.354 444.929C367.763 445.092 368.201 445.172 368.641 445.165H416.298C416.812 445.165 417.304 445.369 417.667 445.732C418.03 446.095 418.234 446.587 418.234 447.101C418.246 447.362 418.205 447.623 418.113 447.868C418.021 448.114 417.88 448.338 417.699 448.527C417.518 448.716 417.301 448.866 417.06 448.969C416.819 449.072 416.56 449.125 416.298 449.125Z" fill="#263238"/>
<g opacity="0.5">
<path d="M416.298 449.125H368.641C367.69 449.126 366.748 448.94 365.869 448.577C364.991 448.214 364.192 447.682 363.519 447.01C362.846 446.338 362.312 445.54 361.948 444.662C361.584 443.784 361.397 442.842 361.397 441.891V332.309C361.397 331.358 361.584 330.416 361.948 329.538C362.312 328.66 362.846 327.862 363.519 327.19C364.192 326.518 364.991 325.986 365.869 325.623C366.748 325.26 367.69 325.074 368.641 325.076H416.298C416.812 325.076 417.304 325.279 417.667 325.642C418.03 326.005 418.234 326.498 418.234 327.011C418.234 327.524 418.03 328.017 417.667 328.38C417.304 328.743 416.812 328.947 416.298 328.947H368.641C368.201 328.939 367.763 329.02 367.354 329.183C366.945 329.347 366.573 329.59 366.259 329.899C365.945 330.207 365.696 330.576 365.525 330.982C365.355 331.388 365.268 331.824 365.268 332.265V441.847C365.268 442.287 365.355 442.723 365.525 443.13C365.696 443.536 365.945 443.904 366.259 444.213C366.573 444.522 366.945 444.765 367.354 444.929C367.763 445.092 368.201 445.172 368.641 445.165H416.298C416.812 445.165 417.304 445.369 417.667 445.732C418.03 446.095 418.234 446.587 418.234 447.101C418.246 447.362 418.205 447.623 418.113 447.868C418.021 448.114 417.88 448.338 417.699 448.527C417.518 448.716 417.301 448.866 417.06 448.969C416.819 449.072 416.56 449.125 416.298 449.125Z" fill="white"/>
</g>
<path d="M368.453 320.043H300.777V325.717H368.453V320.043Z" fill="#125629"/>
<path opacity="0.2" d="M368.453 320.043H300.777V325.717H368.453V320.043Z" fill="white"/>
<path d="M423.078 320.043H365.356V325.717H423.078V320.043Z" fill="#125629"/>
<path opacity="0.5" d="M423.078 320.043H365.356V325.717H423.078V320.043Z" fill="white"/>
<path d="M402.838 408.921L406.035 441.239H398.381L390.717 409.762L402.838 408.921Z" fill="#EEC1BB"/>
<path d="M397.662 439.082L407.428 439.248C407.607 439.252 407.778 439.317 407.915 439.431C408.052 439.546 408.145 439.703 408.18 439.878L409.817 447.853C409.886 448.191 409.82 448.543 409.631 448.833C409.443 449.123 409.148 449.327 408.811 449.401H408.534C405.006 449.279 401.898 449.036 397.474 448.959C392.309 448.87 393.603 449.512 387.52 449.501C383.859 449.501 383.262 445.309 384.811 445.132C391.944 444.358 392.719 442.223 395.506 439.723C396.122 439.253 396.889 439.024 397.662 439.082Z" fill="#263238"/>
<path opacity="0.1" d="M405.205 432.8L402.838 408.921L390.717 409.762L396.324 432.8H405.205Z" fill="black"/>
<path d="M455.241 334.41L423.852 335.516C423.852 335.516 381.57 350.303 380.464 361.662C379.247 373.363 393.448 427.126 393.448 427.126H406.068C406.068 427.126 402.584 387.675 401.257 375.598C399.93 363.52 445.265 367.513 453.139 357.216C460.339 347.771 455.241 334.41 455.241 334.41Z" fill="#263238"/>
<path opacity="0.2" d="M455.241 334.41L423.852 335.516C423.852 335.516 381.57 350.303 380.464 361.662C379.247 373.363 393.448 427.126 393.448 427.126H406.068C406.068 427.126 402.584 387.675 401.257 375.598C399.93 363.52 445.265 367.513 453.139 357.216C460.339 347.771 455.241 334.41 455.241 334.41Z" fill="black"/>
<path d="M408.169 425.357L408.446 429.814H392.851L391.325 425.357H408.169Z" fill="#125629"/>
<path d="M373.629 410.459L374.47 441.239H366.949L362.492 410.459H373.629Z" fill="#EEC1BB"/>
<path d="M365.909 439.082L375.675 439.248C375.853 439.252 376.025 439.317 376.162 439.431C376.298 439.546 376.392 439.703 376.427 439.878L378.064 447.853C378.133 448.191 378.066 448.543 377.878 448.833C377.69 449.123 377.395 449.327 377.058 449.401H376.781C373.253 449.279 370.145 449.036 365.721 448.959C360.545 448.87 361.85 449.512 355.767 449.501C352.106 449.501 351.509 445.309 353.057 445.132C360.191 444.358 360.965 442.223 363.752 439.723C364.367 439.251 365.136 439.022 365.909 439.082Z" fill="#263238"/>
<path opacity="0.1" d="M374.237 432.778L373.629 410.459H362.492L365.732 432.8C368.154 432.811 371.483 432.789 374.237 432.778Z" fill="black"/>
<path d="M441.593 337.009C441.593 337.009 444.203 360.877 419.926 361.994C395.649 363.111 376.693 365.887 376.14 374.525C375.587 383.163 376.14 427.17 376.14 427.17H362.945C362.945 427.17 357.813 399.343 355.811 382.09C353.865 365.334 350.281 353.179 367.502 347.505C385.784 341.466 418.278 335.892 418.278 335.892L441.681 334.41L441.593 337.009Z" fill="#263238"/>
<path d="M378.086 425.357L377.257 429.814H362.768L361.242 425.357H378.086Z" fill="#125629"/>
<path d="M446.824 268.537C446.824 268.537 446.824 263.162 435.952 263.781C424.405 264.445 426.584 269.599 426.584 269.599L446.824 268.537Z" fill="#125629"/>
<path opacity="0.3" d="M446.824 268.537C446.824 268.537 446.824 263.162 435.952 263.781C424.405 264.445 426.584 269.599 426.584 269.599L446.824 268.537Z" fill="black"/>
<path d="M456.955 292.648C456.225 303.276 456.479 335.251 456.479 335.251C456.479 335.251 433.253 336.777 415.027 336.18L412.914 274.675C412.922 273.588 413.258 272.528 413.877 271.634C414.497 270.74 415.371 270.054 416.387 269.665C421.541 267.663 433.641 265.396 452.564 267.884C459.09 268.758 457.818 280.083 456.955 292.648Z" fill="#125629"/>
<path d="M416.641 292.238C416.641 292.238 407.616 314.58 398.802 316.991C389.987 319.402 376.682 317.444 376.682 317.444L372.567 318.55L368.541 317.953H368.398L363.841 317.842C363.677 317.856 363.512 317.822 363.367 317.746C363.221 317.669 363.101 317.552 363.019 317.409C362.938 317.266 362.899 317.103 362.908 316.939C362.916 316.774 362.971 316.616 363.067 316.482L364.704 314.27C364.84 314.088 365.029 313.953 365.245 313.883L369.57 312.489C369.745 312.451 369.926 312.451 370.101 312.489L376.737 313.54C376.737 313.54 395.152 310.521 397.021 308.817C398.89 307.114 404.453 289.252 404.453 289.252L416.641 292.238Z" fill="#EEC1BB"/>
<path opacity="0.1" d="M416.409 281.842C416.409 281.842 415.004 283.512 413.301 285.923L413.909 303.73C420.689 300.732 423.377 283.28 423.377 283.28L418.953 280.161L416.409 281.842Z" fill="black"/>
<path d="M422.083 270.107C415.535 267.962 406.311 272.883 402.783 293.499L416.387 297.47C416.387 297.47 431.44 273.182 422.083 270.107Z" fill="#125629"/>
<path d="M430.743 373.574H420.512V403.557H430.743V373.574Z" fill="#263238"/>
<path opacity="0.6" d="M430.743 373.574H420.512V403.557H430.743V373.574Z" fill="white"/>
<path d="M432.324 430.721V392.63H418.92V430.721L388.405 434.957V439.193L425.622 436.018L462.839 439.193V434.957L432.324 430.721Z" fill="#263238"/>
<path d="M387.963 449.578C390.192 449.578 392 447.771 392 445.541C392 443.312 390.192 441.504 387.963 441.504C385.733 441.504 383.926 443.312 383.926 445.541C383.926 447.771 385.733 449.578 387.963 449.578Z" fill="#125629"/>
<path d="M462.839 449.578C465.068 449.578 466.876 447.771 466.876 445.541C466.876 443.312 465.068 441.504 462.839 441.504C460.609 441.504 458.802 443.312 458.802 445.541C458.802 447.771 460.609 449.578 462.839 449.578Z" fill="#125629"/>
<path d="M425.622 449.578C427.851 449.578 429.659 447.771 429.659 445.541C429.659 443.312 427.851 441.504 425.622 441.504C423.392 441.504 421.585 443.312 421.585 445.541C421.585 447.771 423.392 449.578 425.622 449.578Z" fill="#125629"/>
<path opacity="0.3" d="M430.743 373.574H420.512V380.984H430.743V373.574Z" fill="black"/>
<path d="M466.068 305.61H432.734C430.113 305.612 427.588 306.592 425.651 308.357C423.714 310.122 422.505 312.546 422.26 315.155L419.451 345.271C419.139 348.59 417.643 351.686 415.237 353.993C412.83 356.3 409.674 357.664 406.344 357.835L374.171 359.45C372.288 359.546 370.514 360.362 369.215 361.729C367.917 363.095 367.192 364.909 367.192 366.794V367.468C367.192 369.085 367.834 370.635 368.977 371.778C370.12 372.921 371.67 373.563 373.286 373.563H471.267L476.542 317.157C476.684 315.695 476.519 314.221 476.057 312.827C475.595 311.434 474.847 310.152 473.861 309.065C472.875 307.978 471.672 307.109 470.33 306.514C468.988 305.919 467.536 305.611 466.068 305.61Z" fill="#125629"/>
<path opacity="0.3" d="M466.068 305.61H432.734C430.113 305.612 427.588 306.592 425.651 308.357C423.714 310.122 422.505 312.546 422.26 315.155L419.451 345.271C419.139 348.59 417.643 351.686 415.237 353.993C412.83 356.3 409.674 357.664 406.344 357.835L374.171 359.45C372.288 359.546 370.514 360.362 369.215 361.729C367.917 363.095 367.192 364.909 367.192 366.794V367.468C367.192 369.085 367.834 370.635 368.977 371.778C370.12 372.921 371.67 373.563 373.286 373.563H471.267L476.542 317.157C476.684 315.695 476.519 314.221 476.057 312.827C475.595 311.434 474.847 310.152 473.861 309.065C472.875 307.978 471.672 307.109 470.33 306.514C468.988 305.919 467.536 305.611 466.068 305.61Z" fill="white"/>
<path d="M389.555 339.542H394.145V363.553C394.145 364.14 393.912 364.703 393.497 365.117C393.082 365.532 392.52 365.765 391.933 365.765H391.767C391.181 365.765 390.618 365.532 390.203 365.117C389.788 364.703 389.555 364.14 389.555 363.553V339.542Z" fill="#263238"/>
<path opacity="0.2" d="M389.555 339.542H394.145V363.553C394.145 364.14 393.912 364.703 393.497 365.117C393.082 365.532 392.52 365.765 391.933 365.765H391.767C391.181 365.765 390.618 365.532 390.203 365.117C389.788 364.703 389.555 364.14 389.555 363.553V339.542Z" fill="white"/>
<path d="M411.686 332.652H401.478V341.113H411.709C412.282 341.142 412.856 341.054 413.395 340.855C413.934 340.656 414.426 340.349 414.843 339.953C415.259 339.557 415.591 339.081 415.817 338.553C416.044 338.025 416.161 337.457 416.161 336.882C416.161 336.308 416.044 335.739 415.817 335.211C415.591 334.683 415.259 334.207 414.843 333.811C414.426 333.416 413.934 333.109 413.395 332.909C412.856 332.71 412.282 332.622 411.709 332.652H411.686Z" fill="#125629"/>
<path opacity="0.5" d="M411.686 332.652H401.478V341.113H411.709C412.282 341.142 412.856 341.054 413.395 340.855C413.934 340.656 414.426 340.349 414.843 339.953C415.259 339.557 415.591 339.081 415.817 338.553C416.044 338.025 416.161 337.457 416.161 336.882C416.161 336.308 416.044 335.739 415.817 335.211C415.591 334.683 415.259 334.207 414.843 333.811C414.426 333.416 413.934 333.109 413.395 332.909C412.856 332.71 412.282 332.622 411.709 332.652H411.686Z" fill="white"/>
<path d="M407.605 332.652H371.848C369.594 332.652 367.767 334.479 367.767 336.733V337.042C367.767 339.296 369.594 341.124 371.848 341.124H407.605C409.859 341.124 411.686 339.296 411.686 337.042V336.733C411.686 334.479 409.859 332.652 407.605 332.652Z" fill="#125629"/>
<path opacity="0.3" d="M407.605 332.652H371.848C369.594 332.652 367.767 334.479 367.767 336.733V337.042C367.767 339.296 369.594 341.124 371.848 341.124H407.605C409.859 341.124 411.686 339.296 411.686 337.042V336.733C411.686 334.479 409.859 332.652 407.605 332.652Z" fill="white"/>
<path d="M473.567 373.574H424.56L430.024 315.21C430.269 312.601 431.478 310.177 433.415 308.412C435.352 306.647 437.877 305.668 440.498 305.665H473.833C475.297 305.667 476.744 305.973 478.083 306.566C479.421 307.158 480.622 308.023 481.608 309.105C482.593 310.188 483.342 311.464 483.807 312.852C484.272 314.24 484.442 315.71 484.306 317.168L479.54 368.198C479.384 369.674 478.687 371.039 477.585 372.032C476.482 373.024 475.051 373.574 473.567 373.574Z" fill="#125629"/>
<path opacity="0.5" d="M473.567 373.574H424.56L430.024 315.21C430.269 312.601 431.478 310.177 433.415 308.412C435.352 306.647 437.877 305.668 440.498 305.665H473.833C475.297 305.667 476.744 305.973 478.083 306.566C479.421 307.158 480.622 308.023 481.608 309.105C482.593 310.188 483.342 311.464 483.807 312.852C484.272 314.24 484.442 315.71 484.306 317.168L479.54 368.198C479.384 369.674 478.687 371.039 477.585 372.032C476.482 373.024 475.051 373.574 473.567 373.574Z" fill="white"/>
<path d="M359.085 449.125H311.428C310.477 449.126 309.535 448.94 308.656 448.577C307.777 448.214 306.979 447.682 306.306 447.01C305.633 446.338 305.099 445.54 304.735 444.662C304.371 443.784 304.183 442.842 304.183 441.891V332.309C304.183 331.358 304.371 330.416 304.735 329.538C305.099 328.66 305.633 327.862 306.306 327.19C306.979 326.518 307.777 325.986 308.656 325.623C309.535 325.26 310.477 325.074 311.428 325.076H359.085C359.598 325.076 360.091 325.279 360.454 325.642C360.817 326.005 361.021 326.498 361.021 327.011C361.021 327.524 360.817 328.017 360.454 328.38C360.091 328.743 359.598 328.947 359.085 328.947H311.428C310.987 328.939 310.55 329.02 310.141 329.183C309.732 329.347 309.359 329.59 309.046 329.899C308.732 330.207 308.482 330.576 308.312 330.982C308.142 331.388 308.054 331.824 308.054 332.265V441.847C308.054 442.287 308.142 442.723 308.312 443.13C308.482 443.536 308.732 443.904 309.046 444.213C309.359 444.522 309.732 444.765 310.141 444.929C310.55 445.092 310.987 445.172 311.428 445.165H359.085C359.598 445.165 360.091 445.369 360.454 445.732C360.817 446.095 361.021 446.587 361.021 447.101C361.033 447.362 360.991 447.623 360.899 447.868C360.808 448.114 360.667 448.338 360.486 448.527C360.305 448.716 360.088 448.866 359.847 448.969C359.606 449.072 359.347 449.125 359.085 449.125Z" fill="#263238"/>
<g opacity="0.5">
<path d="M359.085 449.125H311.428C310.477 449.126 309.535 448.94 308.656 448.577C307.777 448.214 306.979 447.682 306.306 447.01C305.633 446.338 305.099 445.54 304.735 444.662C304.371 443.784 304.183 442.842 304.183 441.891V332.309C304.183 331.358 304.371 330.416 304.735 329.538C305.099 328.66 305.633 327.862 306.306 327.19C306.979 326.518 307.777 325.986 308.656 325.623C309.535 325.26 310.477 325.074 311.428 325.076H359.085C359.598 325.076 360.091 325.279 360.454 325.642C360.817 326.005 361.021 326.498 361.021 327.011C361.021 327.524 360.817 328.017 360.454 328.38C360.091 328.743 359.598 328.947 359.085 328.947H311.428C310.987 328.939 310.55 329.02 310.141 329.183C309.732 329.347 309.359 329.59 309.046 329.899C308.732 330.207 308.482 330.576 308.312 330.982C308.142 331.388 308.054 331.824 308.054 332.265V441.847C308.054 442.287 308.142 442.723 308.312 443.13C308.482 443.536 308.732 443.904 309.046 444.213C309.359 444.522 309.732 444.765 310.141 444.929C310.55 445.092 310.987 445.172 311.428 445.165H359.085C359.598 445.165 360.091 445.369 360.454 445.732C360.817 446.095 361.021 446.587 361.021 447.101C361.033 447.362 360.991 447.623 360.899 447.868C360.808 448.114 360.667 448.338 360.486 448.527C360.305 448.716 360.088 448.866 359.847 448.969C359.606 449.072 359.347 449.125 359.085 449.125Z" fill="white"/>
</g>
<path d="M327.586 267.42L324.268 265.208C324.184 265.154 324.114 265.079 324.066 264.991C324.018 264.903 323.993 264.805 323.993 264.705C323.993 264.604 324.018 264.506 324.066 264.418C324.114 264.33 324.184 264.255 324.268 264.201L327.586 261.989C327.708 261.909 327.857 261.881 328 261.91C328.143 261.939 328.268 262.023 328.349 262.144C328.426 262.265 328.453 262.411 328.424 262.551C328.395 262.692 328.313 262.815 328.194 262.896L325.44 264.721L328.194 266.546C328.313 266.627 328.395 266.75 328.424 266.891C328.453 267.031 328.426 267.177 328.349 267.298C328.261 267.412 328.134 267.488 327.992 267.51C327.85 267.533 327.705 267.5 327.586 267.42Z" fill="white"/>
<path d="M334.93 267.265C334.864 267.144 334.846 267.002 334.881 266.868C334.916 266.735 335.001 266.619 335.118 266.546L337.872 264.721L335.118 262.863C334.999 262.782 334.918 262.658 334.891 262.517C334.864 262.376 334.894 262.23 334.974 262.111C335.013 262.051 335.064 262 335.123 261.96C335.182 261.92 335.248 261.892 335.318 261.877C335.388 261.863 335.46 261.863 335.53 261.876C335.6 261.89 335.667 261.917 335.726 261.956L339.044 264.168C339.129 264.222 339.198 264.297 339.247 264.384C339.295 264.472 339.32 264.571 339.32 264.671C339.32 264.772 339.295 264.87 339.247 264.958C339.198 265.046 339.129 265.121 339.044 265.175L335.726 267.387C335.667 267.433 335.599 267.467 335.526 267.486C335.453 267.505 335.376 267.509 335.302 267.498C335.227 267.486 335.156 267.46 335.092 267.42C335.028 267.38 334.973 267.327 334.93 267.265Z" fill="white"/>
<path d="M330.384 268.758C330.316 268.737 330.252 268.702 330.197 268.656C330.142 268.61 330.097 268.553 330.064 268.489C330.031 268.425 330.011 268.356 330.005 268.284C330 268.213 330.008 268.141 330.03 268.072L332.32 260.839C332.34 260.771 332.374 260.708 332.419 260.653C332.464 260.598 332.519 260.552 332.582 260.519C332.645 260.486 332.714 260.466 332.785 260.461C332.856 260.455 332.927 260.463 332.995 260.485C333.063 260.505 333.126 260.539 333.181 260.584C333.236 260.629 333.281 260.685 333.314 260.748C333.347 260.811 333.367 260.879 333.373 260.95C333.379 261.021 333.371 261.092 333.348 261.16L331.07 268.404C331.049 268.473 331.014 268.536 330.968 268.591C330.922 268.646 330.865 268.692 330.801 268.724C330.737 268.757 330.668 268.777 330.596 268.783C330.525 268.789 330.453 268.78 330.384 268.758Z" fill="white"/>
<path d="M349.164 274.288H324.534C324.459 274.288 324.384 274.273 324.315 274.244C324.246 274.215 324.183 274.172 324.131 274.119C324.078 274.065 324.037 274.002 324.009 273.932C323.982 273.862 323.968 273.788 323.97 273.713C323.968 273.638 323.982 273.563 324.009 273.494C324.037 273.424 324.078 273.36 324.131 273.307C324.183 273.253 324.246 273.211 324.315 273.182C324.384 273.153 324.459 273.138 324.534 273.138H349.164C349.317 273.138 349.463 273.198 349.571 273.306C349.679 273.414 349.739 273.56 349.739 273.713C349.739 273.788 349.725 273.863 349.696 273.933C349.667 274.003 349.624 274.066 349.571 274.12C349.518 274.173 349.454 274.215 349.384 274.244C349.315 274.273 349.24 274.288 349.164 274.288Z" fill="white"/>
<path d="M377.456 274.288H352.814C352.738 274.288 352.664 274.273 352.594 274.244C352.524 274.215 352.461 274.173 352.407 274.12C352.354 274.066 352.312 274.003 352.283 273.933C352.254 273.863 352.239 273.788 352.239 273.713C352.25 273.568 352.316 273.433 352.422 273.335C352.529 273.236 352.669 273.182 352.814 273.182H377.434C377.586 273.182 377.732 273.243 377.84 273.35C377.948 273.458 378.009 273.605 378.009 273.757C377.998 273.898 377.936 274.03 377.834 274.128C377.732 274.226 377.597 274.283 377.456 274.288Z" fill="white"/>
<path d="M338.613 279.353H324.534C324.459 279.353 324.384 279.339 324.315 279.309C324.246 279.28 324.183 279.238 324.131 279.184C324.078 279.131 324.037 279.067 324.009 278.998C323.982 278.928 323.968 278.853 323.97 278.778C323.97 278.629 324.029 278.485 324.135 278.379C324.241 278.274 324.384 278.214 324.534 278.214H338.613C338.764 278.214 338.908 278.273 339.016 278.379C339.123 278.484 339.185 278.628 339.188 278.778C339.188 278.931 339.128 279.077 339.02 279.185C338.912 279.293 338.766 279.353 338.613 279.353Z" fill="white"/>
<path d="M365.334 279.353H342.274C342.199 279.353 342.125 279.339 342.055 279.309C341.986 279.28 341.924 279.238 341.871 279.184C341.819 279.131 341.777 279.067 341.75 278.998C341.722 278.928 341.708 278.853 341.71 278.778C341.71 278.629 341.769 278.485 341.875 278.379C341.981 278.274 342.124 278.214 342.274 278.214H365.334C365.484 278.214 365.627 278.274 365.733 278.379C365.839 278.485 365.898 278.629 365.898 278.778C365.9 278.853 365.886 278.928 365.858 278.998C365.831 279.067 365.789 279.131 365.737 279.184C365.684 279.238 365.622 279.28 365.552 279.309C365.483 279.339 365.409 279.353 365.334 279.353Z" fill="white"/>
<path d="M362.049 284.43H324.534C324.383 284.427 324.24 284.365 324.134 284.258C324.029 284.15 323.97 284.006 323.97 283.855C323.968 283.78 323.982 283.705 324.009 283.636C324.037 283.566 324.078 283.502 324.131 283.449C324.183 283.395 324.246 283.353 324.315 283.324C324.384 283.295 324.459 283.28 324.534 283.28H362.049C362.202 283.28 362.348 283.34 362.456 283.448C362.564 283.556 362.624 283.702 362.624 283.855C362.624 284.007 362.564 284.154 362.456 284.262C362.348 284.369 362.202 284.43 362.049 284.43Z" fill="white"/>
<path d="M373.551 284.43H365.721C365.568 284.43 365.422 284.369 365.314 284.262C365.206 284.154 365.146 284.007 365.146 283.855C365.146 283.702 365.206 283.556 365.314 283.448C365.422 283.34 365.568 283.28 365.721 283.28H373.551C373.704 283.28 373.85 283.34 373.958 283.448C374.066 283.556 374.127 283.702 374.127 283.855C374.127 284.007 374.066 284.154 373.958 284.262C373.85 284.369 373.704 284.43 373.551 284.43Z" fill="white"/>
<path d="M342.053 289.496H324.534C324.459 289.496 324.384 289.481 324.315 289.452C324.246 289.423 324.183 289.38 324.131 289.326C324.078 289.273 324.037 289.209 324.009 289.14C323.982 289.07 323.968 288.995 323.97 288.92C323.968 288.845 323.982 288.771 324.009 288.701C324.037 288.631 324.078 288.568 324.131 288.514C324.183 288.461 324.246 288.418 324.315 288.389C324.384 288.36 324.459 288.345 324.534 288.345H342.053C342.205 288.345 342.351 288.406 342.459 288.514C342.567 288.622 342.628 288.768 342.628 288.92C342.628 289.073 342.567 289.219 342.459 289.327C342.351 289.435 342.205 289.496 342.053 289.496Z" fill="white"/>
<path d="M367.524 289.496H345.725C345.572 289.496 345.426 289.435 345.318 289.327C345.21 289.219 345.149 289.073 345.149 288.92C345.149 288.768 345.21 288.622 345.318 288.514C345.426 288.406 345.572 288.345 345.725 288.345H367.524C367.676 288.345 367.823 288.406 367.93 288.514C368.038 288.622 368.099 288.768 368.099 288.92C368.099 289.073 368.038 289.219 367.93 289.327C367.823 289.435 367.676 289.496 367.524 289.496Z" fill="white"/>
<path d="M349.164 294.561H324.534C324.459 294.561 324.384 294.546 324.315 294.517C324.246 294.488 324.183 294.445 324.131 294.392C324.078 294.338 324.037 294.275 324.009 294.205C323.982 294.135 323.968 294.061 323.97 293.986C323.97 293.836 324.029 293.693 324.135 293.587C324.241 293.481 324.384 293.422 324.534 293.422H349.164C349.239 293.42 349.314 293.434 349.384 293.462C349.453 293.489 349.517 293.531 349.57 293.583C349.624 293.636 349.666 293.698 349.695 293.767C349.724 293.837 349.739 293.911 349.739 293.986C349.739 294.138 349.679 294.285 349.571 294.393C349.463 294.5 349.317 294.561 349.164 294.561Z" fill="white"/>
<path d="M370.211 294.561H352.814C352.661 294.561 352.515 294.5 352.407 294.393C352.299 294.285 352.239 294.138 352.239 293.986C352.239 293.911 352.254 293.837 352.283 293.767C352.312 293.698 352.354 293.636 352.408 293.583C352.462 293.531 352.525 293.489 352.595 293.462C352.664 293.434 352.739 293.42 352.814 293.422H370.189C370.339 293.422 370.482 293.481 370.588 293.587C370.694 293.693 370.753 293.836 370.753 293.986C370.756 294.134 370.701 294.277 370.6 294.384C370.499 294.492 370.359 294.555 370.211 294.561Z" fill="white"/>
<path d="M156.466 195.563C156.919 200.772 155.791 210.206 151.865 213.259C158.269 215.57 165.059 219.552 169.395 224.806C173.697 218.546 168.809 214.973 168.809 214.973C163.279 213.005 163.865 208.813 165.292 204.953L156.466 195.563Z" fill="#B97964"/>
<path d="M177.402 191.073C177.336 191.725 177.646 192.289 178.077 192.333C178.508 192.378 178.896 191.869 178.962 191.227C179.028 190.586 178.719 190.011 178.287 189.967C177.856 189.922 177.48 190.42 177.402 191.073Z" fill="#263238"/>
<path d="M178.121 189.978L179.725 189.668C179.725 189.668 178.807 190.851 178.121 189.978Z" fill="#263238"/>
<path d="M177.624 191.769C178.075 193.325 178.734 194.813 179.581 196.193C179.223 196.401 178.823 196.528 178.411 196.566C177.999 196.604 177.583 196.553 177.192 196.415L177.624 191.769Z" fill="#A24E3F"/>
<path d="M179.26 187.633C179.363 187.617 179.456 187.566 179.526 187.489C179.594 187.415 179.632 187.319 179.632 187.218C179.632 187.118 179.594 187.021 179.526 186.947C179.071 186.532 178.524 186.232 177.929 186.072C177.334 185.912 176.71 185.898 176.108 186.029C176.024 186.088 175.964 186.176 175.942 186.276C175.919 186.377 175.935 186.482 175.987 186.571C176.021 186.628 176.07 186.674 176.128 186.706C176.187 186.737 176.252 186.751 176.319 186.748C176.797 186.657 177.29 186.678 177.758 186.811C178.227 186.943 178.658 187.183 179.017 187.511C179.081 187.579 179.168 187.622 179.26 187.633Z" fill="#263238"/>
<path d="M155.946 186.914C155.692 194.999 155.415 198.439 159.021 202.951C164.451 209.731 174.283 208.249 176.916 200.374C179.283 193.285 179.305 181.207 171.861 177.292C164.418 173.377 156.178 178.807 155.946 186.914Z" fill="#B97964"/>
<path d="M156.3 202.188C148.348 200.828 150.626 195.817 150.626 195.817C142.796 194.236 148.846 190.409 148.846 190.409C142.331 187.6 148.846 185.078 148.846 185.078C142.563 179.869 151.522 178.066 151.522 178.066C149.31 169.937 157.052 173.277 157.052 173.277C161.255 166.287 164.883 172.956 164.883 172.956C172.248 163.002 174.04 171.397 174.04 171.397C181.572 169.417 178.685 177.336 178.685 177.336C184.879 178.995 180.013 182.136 180.013 182.136C182.402 185.155 173.764 185.675 173.764 185.675C173.764 185.675 177.878 192.311 173.764 194.136L163.301 202.155C163.301 202.155 158.468 200.186 156.3 202.188Z" fill="#263238"/>
<path d="M164.119 195.662C164.119 195.662 169.649 182.39 165.325 171.065L168.975 169.815C168.975 169.815 173.742 186.284 164.119 195.662Z" fill="#125629"/>
<path d="M169.638 194.203C170.545 196.105 170.899 196.934 172.204 197.521C172.607 197.752 173.069 197.859 173.533 197.83C173.997 197.8 174.442 197.635 174.812 197.354C175.182 197.073 175.462 196.69 175.616 196.251C175.769 195.813 175.791 195.339 175.677 194.888C175.334 192.986 173.874 190.188 171.85 190.133C171.377 190.135 170.913 190.264 170.507 190.507C170.101 190.75 169.767 191.098 169.541 191.514C169.315 191.929 169.205 192.398 169.222 192.871C169.239 193.344 169.383 193.804 169.638 194.203Z" fill="#B97964"/>
<path d="M163.92 221.83C163.92 221.83 171.408 227.36 174.449 229.572L196.116 219.353C196.085 218.152 196.417 216.969 197.068 215.959C197.719 214.949 198.659 214.159 199.766 213.69L201.314 213.049L204.577 211.589C205.185 211.317 205.854 211.211 206.516 211.281C207.178 211.351 207.81 211.595 208.348 211.987C208.98 212.448 209.454 213.092 209.706 213.833C209.957 214.573 209.974 215.373 209.753 216.123C209.298 217.679 208.447 219.089 207.284 220.218C206.121 221.346 204.685 222.153 203.117 222.56L199.954 223.39C199.954 223.39 181.384 237.458 174.748 237.79C168.112 238.122 158.39 231.607 158.39 231.607L163.92 221.83Z" fill="#B97964"/>
<path d="M145.915 212.507C151.633 212.507 158.025 216.068 168.035 222.594C166.597 227.298 163.923 231.53 160.293 234.848C160.293 234.848 154.763 233.366 147.419 226.453C138.571 218.081 142.409 212.518 145.915 212.507Z" fill="#263238"/>
<path d="M254.524 229.075H200.33C199.874 229.082 199.422 228.992 199.003 228.812C198.584 228.631 198.209 228.364 197.901 228.027C197.594 227.69 197.362 227.292 197.22 226.859C197.078 226.425 197.03 225.967 197.078 225.513L201.159 178.862C201.257 177.898 201.705 177.002 202.418 176.346C203.131 175.69 204.061 175.318 205.03 175.301H259.224C259.68 175.294 260.132 175.383 260.55 175.564C260.968 175.745 261.343 176.012 261.649 176.349C261.956 176.686 262.187 177.085 262.328 177.518C262.469 177.951 262.515 178.41 262.465 178.862L258.384 225.513C258.287 226.476 257.84 227.37 257.129 228.026C256.418 228.682 255.491 229.055 254.524 229.075Z" fill="#125629"/>
<path opacity="0.4" d="M254.524 229.075H200.33C199.874 229.082 199.422 228.992 199.003 228.812C198.584 228.631 198.209 228.364 197.901 228.027C197.594 227.69 197.362 227.292 197.22 226.859C197.078 226.425 197.03 225.967 197.078 225.513L201.159 178.862C201.257 177.898 201.705 177.002 202.418 176.346C203.131 175.69 204.061 175.318 205.03 175.301H259.224C259.68 175.294 260.132 175.383 260.55 175.564C260.968 175.745 261.343 176.012 261.649 176.349C261.956 176.686 262.187 177.085 262.328 177.518C262.469 177.951 262.515 178.41 262.465 178.862L258.384 225.513C258.287 226.476 257.84 227.37 257.129 228.026C256.418 228.682 255.491 229.055 254.524 229.075Z" fill="white"/>
<path opacity="0.7" d="M254.723 226.863C255.089 226.856 255.441 226.715 255.71 226.466C255.979 226.218 256.148 225.878 256.183 225.513L260.264 178.862C260.283 178.691 260.265 178.517 260.212 178.353C260.158 178.189 260.071 178.038 259.954 177.911C259.838 177.783 259.696 177.682 259.538 177.613C259.38 177.545 259.209 177.51 259.036 177.513H204.842C204.475 177.519 204.122 177.66 203.851 177.909C203.58 178.157 203.409 178.496 203.371 178.862L199.301 225.513C199.282 225.685 199.3 225.858 199.354 226.022C199.407 226.187 199.495 226.337 199.611 226.465C199.727 226.593 199.869 226.694 200.027 226.763C200.185 226.831 200.356 226.865 200.529 226.863H254.723Z" fill="white"/>
<path d="M217.064 199.434L199.368 225.049V225.513C199.349 225.685 199.367 225.858 199.42 226.023C199.473 226.187 199.561 226.337 199.677 226.465C199.793 226.593 199.935 226.694 200.093 226.763C200.252 226.831 200.423 226.865 200.595 226.863H231.298L217.064 199.434Z" fill="#125629"/>
<path opacity="0.3" d="M217.064 199.434L199.368 225.049V225.513C199.349 225.685 199.367 225.858 199.42 226.023C199.473 226.187 199.561 226.337 199.677 226.465C199.793 226.593 199.935 226.694 200.093 226.763C200.252 226.831 200.423 226.865 200.595 226.863H231.298L217.064 199.434Z" fill="white"/>
<path d="M256.338 223.733L241.506 195.563L219.541 226.863H254.723C255.089 226.856 255.441 226.715 255.71 226.466C255.979 226.218 256.148 225.878 256.183 225.513L256.338 223.733Z" fill="#125629"/>
<path d="M235.777 190.586C235.642 191.934 235.016 193.185 234.019 194.103C233.022 195.02 231.723 195.54 230.369 195.563C229.731 195.575 229.098 195.45 228.513 195.198C227.927 194.946 227.401 194.572 226.971 194.102C226.541 193.631 226.216 193.074 226.018 192.467C225.82 191.861 225.754 191.22 225.823 190.586C225.956 189.236 226.58 187.982 227.577 187.062C228.575 186.142 229.875 185.621 231.231 185.598C231.87 185.586 232.504 185.711 233.091 185.963C233.677 186.216 234.203 186.591 234.633 187.063C235.064 187.535 235.388 188.093 235.585 188.701C235.783 189.309 235.848 189.951 235.777 190.586Z" fill="#125629"/>
<path opacity="0.4" d="M235.777 190.586C235.642 191.934 235.016 193.185 234.019 194.103C233.022 195.02 231.723 195.54 230.369 195.563C229.731 195.575 229.098 195.45 228.513 195.198C227.927 194.946 227.401 194.572 226.971 194.102C226.541 193.631 226.216 193.074 226.018 192.467C225.82 191.861 225.754 191.22 225.823 190.586C225.956 189.236 226.58 187.982 227.577 187.062C228.575 186.142 229.875 185.621 231.231 185.598C231.87 185.586 232.504 185.711 233.091 185.963C233.677 186.216 234.203 186.591 234.633 187.063C235.064 187.535 235.388 188.093 235.585 188.701C235.783 189.309 235.848 189.951 235.777 190.586Z" fill="white"/>
<path d="M100.535 417.371L95.0275 433.696L103.466 437.147L110.069 422.083L100.535 417.371Z" fill="#B97964"/>
<path d="M106.497 436.737C106.453 436.711 106.418 436.674 106.395 436.629C106.371 436.584 106.361 436.533 106.364 436.483C106.37 436.434 106.392 436.389 106.426 436.353C106.459 436.317 106.504 436.293 106.552 436.284C106.729 436.284 110.711 435.355 112.193 436.284C112.473 436.455 112.675 436.729 112.757 437.047C112.819 437.224 112.824 437.416 112.773 437.596C112.721 437.776 112.615 437.936 112.469 438.053C111.905 438.452 110.589 438.286 109.383 437.91C108.389 437.602 107.424 437.21 106.497 436.737ZM107.337 436.66C109.074 437.434 111.529 438.175 112.171 437.688C112.259 437.622 112.37 437.512 112.281 437.169C112.264 437.068 112.223 436.974 112.161 436.893C112.1 436.812 112.019 436.747 111.927 436.704C111.797 436.622 111.655 436.558 111.507 436.516C110.121 436.299 108.705 436.348 107.337 436.66Z" fill="#125629"/>
<path d="M106.375 436.682C106.354 436.645 106.343 436.603 106.343 436.56C106.343 436.518 106.354 436.476 106.375 436.439C106.375 436.328 107.481 433.784 109.041 433.121C109.263 433.028 109.502 432.98 109.743 432.98C109.984 432.98 110.223 433.028 110.445 433.121C111.054 433.375 111.153 433.762 111.098 434.028C110.965 435.189 107.979 436.571 106.674 436.726C106.658 436.734 106.641 436.738 106.624 436.738C106.607 436.738 106.59 436.734 106.574 436.726C106.54 436.736 106.504 436.738 106.469 436.73C106.434 436.722 106.402 436.706 106.375 436.682ZM110.124 433.552C109.839 433.447 109.525 433.447 109.24 433.552C108.255 434.163 107.483 435.063 107.028 436.129C108.454 435.786 110.489 434.614 110.633 433.917C110.633 433.851 110.633 433.674 110.257 433.519H110.124V433.552Z" fill="#125629"/>
<path d="M105.922 435.067L95.3262 431.749C95.1321 431.69 94.9236 431.698 94.7347 431.772C94.5458 431.846 94.3878 431.983 94.2865 432.159L89.7077 440.188C89.6087 440.357 89.5442 440.544 89.5178 440.738C89.4915 440.932 89.5039 441.129 89.5543 441.319C89.6047 441.508 89.6921 441.685 89.8114 441.84C89.9308 441.996 90.0797 442.126 90.2496 442.223C90.34 442.278 90.4365 442.323 90.5372 442.356C94.375 443.462 97.8368 444.302 102.593 445.784C108.211 447.51 106.574 447.742 113.144 449.877C117.103 451.16 119.227 446.857 117.568 446.116C110.147 442.798 110.069 440.188 107.946 436.505C107.465 435.799 106.747 435.288 105.922 435.067Z" fill="#263238"/>
<path opacity="0.2" d="M97.8921 425.202L106.74 429.67L110.069 422.083L100.535 417.371L97.8921 425.202Z" fill="#263238"/>
<path d="M137.94 266.38C137.94 266.38 126.051 275.46 128.595 303.907C128.838 306.539 129.701 309.293 129.701 312.301C129.701 314.303 129.148 315.708 128.495 320.209C127.544 326.757 125.796 351.177 123.949 354.351C122.102 357.526 121.35 356.962 116.207 365.721C110.677 375.144 103.488 391.668 97.9252 419.672C101.64 422.293 105.883 424.071 110.357 424.881C110.357 424.881 140.738 376.969 147.198 359.129C152.982 343.17 159.872 292.238 159.872 292.238L160.425 270.118L137.94 266.38Z" fill="#125629"/>
<path opacity="0.1" d="M150.947 303.907H142.342C142.342 303.907 139.511 330.982 148.868 353.566C149.841 349.938 150.825 345.592 151.787 340.891L155.515 317.046C154.984 313.02 154.575 309.945 154.508 309.746C154.32 309.116 150.947 303.907 150.947 303.907Z" fill="black"/>
<path d="M149.531 423.941L149.586 441.294L159.375 440.642L160.879 423.941H149.531Z" fill="#B97964"/>
<path d="M160.503 440.343C160.454 440.337 160.408 440.315 160.373 440.281C160.337 440.248 160.313 440.203 160.304 440.155C160.292 440.106 160.297 440.055 160.317 440.009C160.337 439.964 160.371 439.925 160.414 439.9C160.569 439.812 164.031 437.688 165.745 438.064C166.065 438.136 166.345 438.325 166.53 438.595C166.645 438.744 166.711 438.925 166.721 439.112C166.731 439.3 166.684 439.486 166.586 439.646C165.735 440.284 164.683 440.594 163.622 440.52C162.579 440.555 161.535 440.496 160.503 440.343ZM161.277 440C163.168 440.166 165.701 440.055 166.177 439.381C166.243 439.292 166.298 439.148 166.11 438.85C166.059 438.763 165.988 438.689 165.904 438.633C165.82 438.578 165.724 438.542 165.624 438.529C165.473 438.507 165.32 438.507 165.17 438.529C163.789 438.761 162.466 439.26 161.277 440Z" fill="#125629"/>
<path d="M160.37 440.343C160.333 440.319 160.302 440.286 160.281 440.248C160.26 440.209 160.249 440.166 160.248 440.122C160.248 440 160.436 437.246 161.686 436.14C161.864 435.977 162.074 435.851 162.302 435.771C162.53 435.691 162.772 435.659 163.013 435.676C163.677 435.676 163.898 436.052 163.931 436.328C164.186 437.434 161.83 439.746 160.613 440.332C160.581 440.343 160.546 440.343 160.514 440.332C160.469 440.352 160.418 440.356 160.37 440.343ZM162.87 436.14C162.565 436.146 162.274 436.264 162.051 436.472C161.322 437.373 160.889 438.478 160.812 439.635C162.04 438.85 163.577 437.069 163.489 436.383C163.489 436.317 163.434 436.14 163.002 436.118H162.87V436.14Z" fill="#125629"/>
<path d="M159.419 438.96L148.359 439.359C148.157 439.368 147.964 439.445 147.811 439.577C147.659 439.71 147.556 439.89 147.518 440.089L145.837 449.18C145.763 449.566 145.844 449.965 146.064 450.291C146.284 450.616 146.624 450.841 147.01 450.916C147.116 450.927 147.224 450.927 147.33 450.916C151.323 450.695 154.862 450.352 159.839 450.186C165.712 449.976 164.263 450.728 171.154 450.584C175.323 450.485 175.909 445.729 174.14 445.563C166.033 444.833 165.104 442.422 161.885 439.646C161.177 439.12 160.298 438.875 159.419 438.96Z" fill="#263238"/>
<path opacity="0.2" d="M149.564 432.922L160.093 432.7L160.879 423.941H149.531L149.564 432.922Z" fill="#263238"/>
<path d="M144.565 263.228C144.565 263.228 132.698 278.944 141.491 309.68L151.445 354.573C151.445 354.573 141.999 374.989 147.021 428.852C151.887 429.535 156.833 429.423 161.664 428.52C161.664 428.52 172.724 371.638 174.394 352.427C176.241 331.258 175.135 267.453 175.135 267.453L144.565 263.228Z" fill="#125629"/>
<path d="M151.732 212.286C151.732 212.286 149.896 204.433 161.686 207.862C173.476 211.29 172.481 218.004 172.481 218.004L151.732 212.286Z" fill="#263238"/>
<path opacity="0.4" d="M151.732 212.286C151.732 212.286 149.896 204.433 161.686 207.862C173.476 211.29 172.481 218.004 172.481 218.004L151.732 212.286Z" fill="black"/>
<path d="M180.975 231.928C180.975 234.682 179.869 238.664 178.763 243.121C178.254 245.233 177.79 247.434 177.48 249.668C175.81 261.834 175.268 274.653 175.268 274.653C168.759 276.073 162.028 276.137 155.494 274.841C148.959 273.545 142.762 270.917 137.288 267.121C137.288 267.121 141.922 263.195 140.971 235.998C140.539 223.744 136.115 209.178 156.366 211.467C173.465 213.403 179.216 218.712 180.599 227.018C180.599 227.117 180.599 227.228 180.599 227.338L180.698 228.113C180.866 229.378 180.958 230.652 180.975 231.928Z" fill="#263238"/>
<path opacity="0.4" d="M180.975 231.928C180.975 234.682 179.869 238.664 178.763 243.121C174.14 237.591 169.506 227.139 169.506 227.139L173.321 221.521L180.046 224.651C180.278 225.428 180.463 226.218 180.599 227.018C180.599 227.117 180.599 227.228 180.599 227.338L180.698 228.113C180.866 229.378 180.958 230.652 180.975 231.928Z" fill="black"/>
<path d="M188.02 227.128C188.02 227.128 194.656 233.676 197.277 236.308L220.216 229.429C220.366 228.243 220.868 227.129 221.656 226.23C222.444 225.331 223.483 224.689 224.64 224.385L226.254 223.965L229.705 223.014C230.348 222.84 231.025 222.837 231.669 223.006C232.313 223.175 232.902 223.509 233.377 223.976C233.933 224.524 234.306 225.231 234.445 225.999C234.583 226.767 234.481 227.56 234.151 228.267C233.468 229.737 232.417 231.006 231.099 231.95C229.781 232.893 228.242 233.48 226.63 233.654L223.379 233.996C223.379 233.996 202.907 245.178 196.315 244.559C189.723 243.939 181.063 236.009 181.063 236.009L188.02 227.128Z" fill="#B97964"/>
<path d="M171.541 215.217C177.203 216.046 182.988 220.547 191.968 228.489C189.841 232.93 186.56 236.719 182.468 239.46C182.468 239.46 177.236 237.171 170.999 229.241C163.456 219.641 168.112 214.708 171.541 215.217Z" fill="#263238"/>
</svg>
