<svg xmlns="http://www.w3.org/2000/svg" viewBox="0 0 236.06 236"><defs><style>.cls-1{fill:#0280d0;}.cls-2{fill:#2d2d2d;}</style></defs><g id="Layer_2" data-name="Layer 2"><g id="Layer_1-2" data-name="Layer 1"><path class="cls-1" d="M112.14,200.07V.09A117.1,117.1,0,0,0,77.21,7.2c-3.35,1.23-6.66,2.63-9.87,4.16-3,1.41-5.9,3-8.72,4.62a118,118,0,0,0,0,204v-45a82,82,0,0,1-20.95-39.18H67.34V100.45H37.63A81.92,81.92,0,0,1,58.62,61a83.67,83.67,0,0,1,8.72-7.9,82.26,82.26,0,0,1,9.87-6.64V228.75a117.4,117.4,0,0,0,34.93,7.1h0V200.07Z"/><path class="cls-2" d="M156.54,6.38A117,117,0,0,0,121.62,0V158.9h34.92V45.22a82.31,82.31,0,0,1-34.92,155c-1.19.05-2.38.08-3.58.08-2,0-3.92-.08-5.85-.21v35.78c1.94.11,3.89.15,5.85.15,1.2,0,2.39,0,3.58-.06a117,117,0,0,0,34.92-6.38,118.06,118.06,0,0,0,0-223.18Z"/></g></g></svg>